/* XPM */
static char *ecc80d37c2024779c194e074e6519859wObHndxlsB2QtOlo[] = {
/* columns rows colors chars-per-pixel */
"64 64 198 2 ",
"   c None",
".  c #161C2E",
"X  c #1C1F30",
"o  c #171F31",
"O  c #192134",
"+  c #1C2539",
"@  c #1C2A3C",
"#  c #252632",
"$  c #2C2A34",
"%  c #212D3C",
"&  c #322E35",
"*  c #342E38",
"=  c #25353F",
"-  c #3D353A",
";  c #383338",
":  c #40373C",
">  c #453A3E",
",  c #493C3E",
"<  c #5C4A3F",
"1  c #56463E",
"2  c #4D403C",
"3  c #1E3040",
"4  c #292A42",
"5  c #292F46",
"6  c #213346",
"7  c #283849",
"8  c #373645",
"9  c #2C3D56",
"0  c #263E51",
"q  c #333C55",
"w  c #333F5A",
"e  c #4D3E41",
"r  c #433F4A",
"t  c #413A5A",
"y  c #483F61",
"u  c #32464C",
"i  c #264454",
"p  c #2C4F5D",
"a  c #2C4557",
"s  c #32425E",
"d  c #364E5A",
"f  c #3B595A",
"g  c #2D4148",
"h  c #3F605E",
"j  c #334A64",
"k  c #3D4B6B",
"l  c #384563",
"z  c #2D5466",
"x  c #2E5769",
"c  c #365D68",
"v  c #3D5373",
"b  c #3B5D77",
"n  c #34616C",
"m  c #356474",
"M  c #376974",
"N  c #386B75",
"B  c #396D7B",
"V  c #36697A",
"C  c #48474C",
"Z  c #554442",
"A  c #5A4646",
"S  c #5D4A45",
"D  c #534C43",
"F  c #5A545A",
"G  c #494D58",
"H  c #614C44",
"J  c #604B48",
"K  c #655042",
"L  c #6B5344",
"P  c #6B524A",
"I  c #685849",
"U  c #795C46",
"Y  c #72564A",
"T  c #75594B",
"R  c #795B4D",
"E  c #7C5D50",
"W  c #72614C",
"Q  c #7E6049",
"!  c #78694F",
"~  c #776953",
"^  c #6F6450",
"/  c #444465",
"(  c #464A6C",
")  c #505C6A",
"_  c #464F71",
"`  c #455273",
"'  c #445678",
"]  c #435B7C",
"[  c #495775",
"{  c #436662",
"}  c #4E6F6D",
"|  c #54636A",
" . c #506771",
".. c #497C7A",
"X. c #537F73",
"o. c #497176",
"O. c #805F51",
"+. c #86644C",
"@. c #89664D",
"#. c #8D6A4E",
"$. c #96704E",
"%. c #9C734F",
"&. c #856353",
"*. c #896553",
"=. c #816C52",
"-. c #8D6953",
";. c #8B6959",
":. c #946D53",
">. c #897152",
",. c #9D7353",
"<. c #9E7B59",
"1. c #967755",
"2. c #936D4E",
"3. c #A27654",
"4. c #A67953",
"5. c #AB7D54",
"6. c #A47E5A",
"7. c #806E60",
"8. c #8A7464",
"9. c #56857A",
"0. c #AE8F5F",
"q. c #A8845B",
"w. c #B48355",
"e. c #BC8E5B",
"r. c #B48959",
"t. c #BD925E",
"y. c #9E8D62",
"u. c #B18D62",
"i. c #B39362",
"p. c #BC9563",
"a. c #A98A62",
"s. c #C1955F",
"d. c #C69C63",
"f. c #C69C64",
"g. c #CDA367",
"h. c #CCA96B",
"j. c #CBA568",
"k. c #D2AB6B",
"l. c #D0A668",
"z. c #D6B06D",
"x. c #D8B36F",
"c. c #C7AD74",
"v. c #DAB570",
"b. c #3C6F85",
"n. c #3A7585",
"m. c #3D788B",
"M. c #446281",
"N. c #446C88",
"B. c #44728B",
"V. c #48778D",
"C. c #447B92",
"Z. c #497E93",
"A. c #3E8091",
"S. c #468389",
"D. c #5B9289",
"F. c #438396",
"G. c #438599",
"H. c #448C9E",
"J. c #498796",
"K. c #49939B",
"L. c #5B8B83",
"P. c #689B94",
"I. c #6A9387",
"U. c #5FA297",
"Y. c #73B59B",
"T. c #6FA893",
"R. c #4D8FA0",
"E. c #4692A2",
"W. c #4A95A3",
"Q. c #4B9AA4",
"!. c #4C9EA9",
"~. c #539EAA",
"^. c #519BA7",
"/. c #4FA2AC",
"(. c #50A6AD",
"). c #54AAAE",
"_. c #5EA9A0",
"`. c #53ACB2",
"'. c #57B3B7",
"]. c #5AB9BB",
"[. c #58B5B8",
"{. c #6BB9A9",
"}. c #6AB5A4",
"|. c #65BEB7",
" X c #6FC6B7",
".X c #6AC5BB",
"XX c #6EC8BA",
"oX c #64C1BB",
"OX c #75CDBA",
"+X c #7BD3BA",
"@X c #ABD19E",
"#X c #80C9A8",
"$X c #89D1AB",
"%X c #80D6BA",
"&X c #84DAB9",
"*X c #8BDFB9",
"=X c #89D9B4",
"-X c #8FE2B9",
/* pixels */
"                                                                                                                                ",
"                                                                                                                                ",
"                                                                                                                                ",
"                                                                                                                                ",
"                                                                                                                                ",
"                                                                                                                                ",
"                                                                                                                                ",
"                                                                                                                                ",
"                                                                                                                                ",
"                                                                                                                                ",
"                                                                                                                                ",
"                                      .           . . . .             . . . .           .                                       ",
"                                  f $X-XX.      7 -X-X+X#X.         . #X.X-X-X7       X.-X$Xf                                   ",
"                  . f       . . h -X&X%X.       = &X&X|.#X.         . {.-X&X&X=       . %X&X-Xh . .       f .                   ",
"              X.+X%X%Xu   T.+X*X*X.X}.% . . . . O 6 d P.. . . . . . . . P.d 6 O . . . . % }..X*X*X+XT.  u %X%X+XX.              ",
"              M.=XL.d . i i o.9.9.P.l ] @ !./.Q.+ ` ` ] v p W.H.H.W.p v ] ` ` + Q./.!.@ ] l P.9.9.o.i i . d L.=XM.              ",
"              G.6 ] ] Q.V.j ` ] v 4 ( ( 3 '.'.].+ ' / ' / z !.[.].].z / ' / ' s ].'.'.3 ( ( 4 v ] ` j V.Q.] ] 6 G.              ",
"        u . . V w ` ] ] ] ] ` ( k 4 y ' ] ` ` ] ' ` ` ] ] ] ( ' ] ' ' ] ] ` ` ' ] l l ] ' y 4 k ( ` ] ] ] ] ` w V . . u         ",
"        -X%X).n.l ] ] ' / ] ` ] v 4 y ` / ( ` ( ( ( ( ] ] ( ( ` ] ( ( ] ] ( ( ( ( ` ( / ` y 4 v ] ` ] / ' ] ] l n.).%X-X        ",
"      . OXD.m M.( k + > K K Z X % 4 y / / ] ] ] ] ] ] ] _ ] ] ' ] ] ] _ ] ] ] ] ] ] ] / / y 4 % X Z K K > + k ( M.m D.OX.       ",
"      X.-XT.y ' w : 3.z.w.f.d.l.4.C y O X A &.J * # e P E &.&.&.&.&.T > # * J - Z &.A X O y C 4.l.d.f.w.z.3.: w ' y T.-XX.      ",
"      . H.B.y k Y t.z.v.v.v.v.k.h.D * A &.&.&.&.&.&.&.&.&.&.&.&.&.&.&.&.&.&.&.&.&.&.&.&.A * D h.k.v.v.v.v.z.t.Y k y B.H..       ",
"      . N.B.t e Z Q f.i.d.p.u.d.r.& - , Z U 2.,.@.@.@.@.@.@.@.@.@.@.@.@.@.@.@.L ,.2.U Z , - & r.d.u.p.d.i.f.Q Z e t B.N..       ",
"      . F.q 4 R 3.s.v.v.v.v.v.v.h.@.T O.w.w.w.w.w.w.w.d.k.v.v.v.v.v.v.k.d.w.w.w.w.w.w.w.O.T @.h.v.v.v.v.v.v.s.3.R 4 q F..       ",
"        Q...-X-X# 0.v.v.v.v.v.v.k.6.D S *.5.w.w.w.s.g.x.v.k.d.x.x.d.k.v.x.g.s.w.w.w.5.*.S D 6.k.v.v.v.v.v.v.0.# -X-X..Q.        ",
"        S.p |..X-X@Xv.v.v.v.v.v.&.q.-.# *.4.g.v.v.v.v.v.v.v.v.v.v.v.v.v.v.v.v.v.v.g.4.*.# -.q.&.v.v.v.v.v.v.@X-X.X|.p S.        ",
"        m.p Q.@ Y.P.i.v.v.v.v.v.# -.-.# w.w.w.g.v.v.v.v.v.v.v.v.v.v.v.v.v.v.v.v.g.w.w.w.# -.-.# v.v.v.v.v.i.P.Y.@ Q.p m.        ",
"        H.F.`.].3 D.0.v.y.X.g . $ <.&.P K U ,.! u.u.u.p.d.d.u.u.u.u.d.d.p.u.u.=.! ,.U K P &.<.$ . g X.y.v.0.D.3 ].`.F.H.        ",
"        n.!.].].O B } W f +X%X-X$XW #.*.w.w.w.e.d.l.v.v.v.v.v.v.v.v.v.v.v.v.l.d.e.w.w.w.*.#.W $X-X%X+Xf W } B O ].].!.n.        ",
"        0 Z.(./.)...-X-XO 9.-X-X$XY R &.w.w.w.w.k.v.v.v.v.v.v.v.v.v.v.v.v.v.v.k.w.w.w.w.&.R Y $X-X-X9.O -X-X..)./.(.Z.0         ",
"          H.(.(.!.]..X*X(.].OXOX{.: P O.*.4.w.w.r.k.v.k.e.e.k.v.v.k.e.e.k.v.k.r.w.w.4.*.O.P : {.OXOX].(.*X.X].!.(.(.H.          ",
"          9 W.(.].`.`.E.].K.Y.+X#X> > R w.w.w.w.w.s.d.l.v.v.v.v.v.v.v.v.l.d.s.w.w.w.w.w.R > > #X+XY.K.].E.`.`.].(.W.9           ",
"            m /.].(.`.].[.G._..X-XT.$ R 5.+.w.w.. . . . # %.w.5.w.w.%.# . . . . w.w.+.5.R $ T.-X.X_.G.[.].`.(.]./.m             ",
"            . 6 ].[.].!./.m.D.=X%X+X-XC *.4.w.w...+X-X-X{.L w.w.w.w.L {.-X-X+X..w.w.4.*.C -X+X%X=XD.m./.!.].[.].6 .             ",
"            . v 6 n ).].].Q.J.=X-X-X-X= &.&.&.# -X-X+X*X#X: &.&.&.&.: #X*X+X-X-X# &.&.&.= -X-X-X=XJ.Q.].].).n 6 v .             ",
"            . v _ ] l O . . m H.O S.c . -X+X+X= % U.a . n { -X-X-X-X{ n . a U.% = +X+X-X. c S.O H.m . . O l ] _ v .             ",
"              / ( ` ` ] ] s m H.B.`.].3 ]..X*X= ].].].].(.c .XOXOXOXc (.].].].].= *X.X].3 ].`.B.H.m s ] ] ` ` ( /               ",
"            . v ] ' Z.C.] q j H.G.`.].3 -X&XoX3 H.Q.Q.[.(.{ -X+X-X-X{ (.[.Q.Q.H.3 oX&X-X3 ].`.G.H.j q ] C.Z.' ] v .             ",
"            . / M.H.W.E.B.s m M.M.(.].].].`.`.].].].].E.E./.'.].].`./.E.E.].].].].`.`.].].].(.M.M.m s B.E.W.H.M./ .             ",
"            . k ` W.'.].H.b s F.H.J.W././.!.H.H.H.!.].].H.H.!.`./.!.H./.].].!.H.H.H.!././.W.J.H.F.s b H.].'.W.` k .             ",
"              ' V.C.~.].B.] 5 A.H.W.W.W.].].].].[.!.].].].].].].].].].].].].!.[.].].].].W.W.W.H.A.5 ] B.].~.C.V.'               ",
"            . / V.~.~.E.H.N.C.i o 0 c N M m N N M c N N N N m M N N N N N N c M N N m M N c 0 o i C.N.H.E.~.~.V./ .             ",
"            . / ] J.~.E.H.C.C.m [.!.'.C A e e A - A A A A A A A A A A A A A A - A e e A C '.!.[.m C.C.H.E.~.J.] / .             ",
"            # t C.!.W.M.C.( B.K.*XOXXXF > : A O.Z T T - * e e Z P e $ & - T T Z O.A : > F XXOX*XK.B.( C.M.W.!.C.t #             ",
"            & / ` !.].(.H.C.C. X*X+XXXq o 8 Y &.< . . > . . . . . . . . > . . < &.Y 8 o q XX+X*X XC.C.H.(.].!.` / &             ",
"            S ` V.C.M.R.H.G.W.OXOX-XXX[ H.) T :.J M.C.] 9 a z z z z a 9 ] C.M.J :.T ) H.[ XX-X+XOXW.G.H.R.M.C.V.` S             ",
"          . U 8 N.G.~.^.M.C.C. X|.&XoX[ B.F K 5.c.C.z P ! =.=.1.1.! ! ! P z C.c.5.H F B.[ oX&X|. XC.C.M.^.~.G.N.8 U .           ",
"          : P q.i F.^.!.H.C.Z. X+X-XXXN.B.) K 5.c.N.C 4.w.w.w.w.w.5.5.w.4.C N.c.5.H ) B.N.XX-X+X XZ.C.H.!.^.F.i q.P :           ",
"          : : j.K a W.H.F.B.C.[.-X-XXX3 . & 1.w.I . U w.5.K K K K K K :.w.U . I w.1.& . 3 XX-X-X[.C.B.F.H.W.a K j.: :           ",
"          , R , f.i.; 6 x x b.B Y.-XXXa.v.0.#.w.>.g.w.w.O j j ' ' j j O w.w.g.>.w.#.0.v.a.XX-XY.B b.x x 6 ; i.f., R ,           ",
"          A &.L ,.>.v.k.h.+.I.@ C }.XX7.5.T $.w.=.3.3.3.O V V G.B.V G.@ 5.3.3.=.w.$.T 5.7.XX}.C @ I.+.h.k.v.>.,.L &.A           ",
"          J &.4.w.4.w.e.q.: $ > ,.| ).7.w.$.$.w.! -.3.5.@ W.n.Q.z n.J.+ 5.3.-.! w.$.$.w.7.).| ,.> $ : q.e.w.4.w.4.&.J           ",
"          J &.,.w.w.s.w.r.Q :.#.w.@.u 9 7 r #.L ^ 5 &.w.+ B 7 K.c 7 B + w.&.5 ^ L #.r 7 9 u @.w.#.:.Q r.w.s.w.w.,.&.J           ",
"          . S L w.w.e.w.d.#.<.5.w.q.| H.B.) Z :.~ ` ;.w.o a 7 G.m.7 a o w.;.` ~ :.Z | V.H.| q.w.5.<.#.d.w.e.w.w.L S .           ",
"            . ; w.w.q.w.t.>.6.L w.<.F B.]  .Z :.~ N.8.w.O V m z z m V O w.8.N.~ :.Z  .] B.F <.w.L 6.>.t.w.q.w.w.; .             ",
"              . w.w.+.5.q.+.:.L 5.I G z j  .W 5.^ a =.5.. { T.H.H.T.{ . w.=.a ^ 5.W  .j z G I 5.L :.+.q.5.+.w.w..               ",
"                . , < 4.<.+.:.L 4.Z ,.z.v.0.W 4.=.l.s.3.@ B.j F.F.j B.@ 3.s.l.=.4.W 0.v.z.,.Z 4.L :.+.<.4.< , .                 ",
"                      . # 1 # < :.K @.w.w.$.@.*.L :.3.L @ A.b.H.B.z m.@ L 3.:.L *.@.$.w.w.@.K :.< # 1 # .                       ",
"                              e 5.K @.w.5.Q $.K L :.3.L @ m.z G.z @ m @ L 3.:.L K $.Q 5.w.@.K 5.e                               ",
"                              . . # & .   . U 2 -   H # .             . # H   - 2 U .   . & # . .                               ",
"                                                                                                                                ",
"                                                                                                                                ",
"                                                                                                                                ",
"                                                                                                                                "
};
