/* XPM */
static char *abf26a3dc5a24271ab62f5e9caaddd0d0HGoCj5NR1vpUNlt[] = {
/* columns rows colors chars-per-pixel */
"64 64 200 2 ",
"   c #1E1716",
".  c #241816",
"X  c #2A1A16",
"o  c #251A1A",
"O  c #2B1E1C",
"+  c #291613",
"@  c #321C15",
"#  c #381E17",
"$  c #2D201E",
"%  c #32211E",
"&  c #3D231C",
"*  c #3E2016",
"=  c #2D2222",
"-  c #2E2829",
";  c #332523",
":  c #3A2623",
">  c #362825",
",  c #3B2926",
"<  c #352A2A",
"1  c #3B2D2B",
"2  c #3D302E",
"3  c #382E30",
"4  c #342D30",
"5  c #3C3333",
"6  c #3C3739",
"7  c #3E3A3C",
"8  c #363236",
"9  c #4C2414",
"0  c #45251B",
"q  c #49271A",
"w  c #4F2A1B",
"e  c #432015",
"r  c #542A15",
"t  c #5A2D16",
"y  c #542D1A",
"u  c #592E1A",
"i  c #5D321A",
"p  c #58301B",
"a  c #643316",
"s  c #643519",
"d  c #67381A",
"f  c #6B3A1B",
"g  c #683618",
"h  c #723E1B",
"j  c #412D29",
"k  c #462D25",
"l  c #42322D",
"z  c #4A332C",
"x  c #4E3227",
"c  c #51362C",
"v  c #54382C",
"b  c #5C3E2D",
"n  c #593523",
"m  c #433532",
"M  c #493631",
"N  c #463835",
"B  c #4B3934",
"V  c #443B3B",
"C  c #4B3D3A",
"Z  c #553C34",
"A  c #643A24",
"S  c #75411D",
"D  c #7B441D",
"F  c #4C413E",
"G  c #5E4333",
"H  c #52423D",
"J  c #65412C",
"K  c #6A452E",
"L  c #7C4924",
"P  c #774929",
"I  c #634635",
"U  c #6D4730",
"Y  c #634939",
"T  c #6C4B36",
"R  c #794E30",
"E  c #765239",
"W  c #7A563A",
"Q  c #7D583C",
"!  c #7B5233",
"~  c #6E513D",
"^  c #3F3D40",
"/  c #423F42",
"(  c #454243",
")  c #4C4444",
"_  c #464649",
"`  c #4B4B4C",
"'  c #494649",
"]  c #524543",
"[  c #514846",
"{  c #5A4A44",
"}  c #534A4A",
"|  c #5A4E4B",
" . c #5A4744",
".. c #56504E",
"X. c #5D514E",
"o. c #4E4D50",
"O. c #514F50",
"+. c #4F5056",
"@. c #535354",
"#. c #5B5453",
"$. c #5B5857",
"%. c #56565A",
"&. c #595659",
"*. c #5B5B5B",
"=. c #57595B",
"-. c #62524E",
";. c #795841",
":. c #615653",
">. c #645956",
",. c #635C5B",
"<. c #695E5B",
"1. c #6A5B56",
"2. c #5F615F",
"3. c #65615D",
"4. c #6A615F",
"5. c #5E5E63",
"6. c #605E63",
"7. c #5E6062",
"8. c #636363",
"9. c #6A6564",
"0. c #6E6966",
"q. c #64656A",
"w. c #686768",
"e. c #66686E",
"r. c #6B6B6C",
"t. c #706562",
"y. c #746B69",
"u. c #6C6D72",
"i. c #6F7076",
"p. c #737374",
"a. c #73757A",
"s. c #77797E",
"d. c #7B7A7D",
"f. c #7A7777",
"g. c #73706F",
"h. c #80461E",
"j. c #844A1F",
"k. c #884D1F",
"l. c #8C501F",
"z. c #834B22",
"x. c #8A4E21",
"c. c #854E29",
"v. c #8E5122",
"b. c #8E552A",
"n. c #865129",
"m. c #925523",
"M. c #975924",
"N. c #985924",
"B. c #925929",
"V. c #9D6230",
"C. c #805D41",
"Z. c #877B78",
"A. c #81726E",
"S. c #7B7D81",
"D. c #807E81",
"F. c #7E8186",
"G. c #7F8288",
"H. c #838284",
"J. c #8B8483",
"K. c #83868A",
"L. c #858A8E",
"P. c #898A8E",
"I. c #928582",
"U. c #988C89",
"Y. c #878B90",
"T. c #898D92",
"R. c #8C9195",
"E. c #8F9399",
"W. c #929497",
"Q. c #93969B",
"!. c #979A9E",
"~. c #9E9590",
"^. c #9B918E",
"/. c #A69C99",
"(. c #A8A19E",
"). c #9B9DA2",
"_. c #A8A5A8",
"`. c #B5ABA9",
"'. c #B9B2AE",
"]. c #BCB5B3",
"[. c #ABADB1",
"{. c #9EA2A5",
"}. c #C3BAB7",
"|. c #C4BBB9",
" X c #C7C1BF",
".X c #CCC6C4",
"XX c #D3CECC",
"oX c #D5D1CE",
"OX c #DCD7D6",
"+X c #E1DCDA",
"@X c #EAE7E6",
"#X c #F0EFEE",
"$X c #F7F8F8",
"%X c #FAFBFA",
"&X c #FDFDFD",
"*X c white",
"=X c #FEFEFE",
"-X c #FCFEFE",
";X c #FEFEFD",
":X c #F4F3F2",
/* pixels */
"%X&X&X&X&X&X&X&X&X&X&X&X&X&X&X&X&X%X$X%X&X#X@X$X@X.XXX.X'.}._.I.U.`.U.I.].U.~..XOX@X#X%X&X&X&X&X&X%X&X%X%X%X&X&X&X$X&X&X&X&X&X&X",
"&X&X&X&X&X&X&X&X&X&X&X&X&X&X&X&X+X/.U./.'.y.| J.<.N B 2 N m 1 F C < N N > V N 1 C | t._.].oX@X#X%X%X%X&X&X%X&X&X&X&X&X&X&X&X&X&X",
"&X&X&X&X&X&X&X&X&X&X&X&X&X&X@X.X4.N H m 5 [ X.- F 4.:.H w.3.H y.w.B ,.9., 8.9.l 8.>.F 1 N [ 4.y./.@X%X&X&X&X&X&X&X&X&X%X&X&X&X&X",
"&X&X&X&X&X&X&X&X&X&X&X&X&X`.] < < p.H.9., w.,.; ..8...B *.*.B *.#.m *.#.j *.*.M ,.*.#.z f.#.j C l y.#X$X$X%X&X%X%X%X%X&X&X&X&X&X",
"&X&X&X&X&X&X&X&X&X&X#X.X/.< ] t.N ,.2.#.: $.*.1 } p.} M *.$.z *.*.M 8.3., *.#.l #.7.)  .*.@.{ p...5 | J.oX:X&X%X%X&X&X&X&X&X&X&X",
"&X&X&X&X&X&X&X&X&X+XJ.m 1 ; d.r.| F r.,.% #.q.N [ 8.) B *.#.M 8.r.B q.#., *.#.1 #.r.B | 8.H <.8.@.C ,.F { /.OX$X&X&X&X&X&X&X&X&X",
"&X&X&X&X&X&X&X&X%XZ.N 0.9.; #.*.@.m 8.*.; #.f.F ) *.) N ( ` M ,.8.B %..., *.} 1 &.*.l &.p.l 9.8.} <.r.$.1 N X.~.#X&X&X&X&X&X&X&X",
"&X&X&X&X&X&X&X XA.M 4.8.*.C l *.*.l #.*., ) 8.) ) =.F C @.%.1 } @.l V ( : @.F 1 %.%.m *.,.k w.8.H r.8.} B f.M < ].%X&X&X&X&X&X&X",
"&X&X&X&X&X%X}.m 5 % F *.*.*.M ..p.N ) @.m 1 @.5 5 ^ 3 1 O.) ; 8 7 > 3 8 % ( 5 , ( 7 C @.} M *.) B r.8.C y.8.%.; 1 y.@X&X&X&X&X&X",
"&X&X&X&X&X+X) } 9.) > F *.*.} B q.) : / 1 = 5 ; = - = = - ; = = = O $ = O - = = - < 1 V m m %.m | r.&.C p.*.5 ; [ 1 U.%X&X&X&X&X",
"&X&X&X&X&X].1 $.w.8.) O ) *.#., V 6 O O O O O X X X X . X X . . .   o . . X o . . X O ; < , V l ,.8.V >.f.} = ] 8.) 1 '.%X&X&X&X",
"&X&X&X%X/.< = C 2.r.*.C > O.=.5 O X O X .   . O = > < 1 1 2 m m , m m l 1 1 , > = o o - > ; o > ' ( j 8.%.3 ; p.p.$.< C @X&X&X&X",
"&X&X&X].< } ] < 5 } %.$.m > 7 ; O . o - F ,.p.H.Y.Q.!.Q.W.Y.K.u.[ s.L.Y.W.Q.Q.W.P.d.p.,.V < ; O % ; 1 @.^ ; X.p.q.V ; 5 t.#X&X&X",
"&X&X%XZ.B w.r.#.> ; ( @.) O O o . < ,.P.).).).Q.W.R.Y.Y.Y.P.Y.a.} S.T.Y.Y.Y.Y.Y.E.Q.{.).W.J.#.< . X ; 7 ; N 3.*.V : :.8.m _.&X&X",
"&X&X%XI.> *.f.u.} , % 7 5 = . . F W._.Q.R.Y.Y.T.T.L.K.H.H.Y.Y.a.} F.Y.K.S.K.L.L.Y.Y.T.R.R.Q.[.S.1 o X o : } ` 7 , 9.8.=.V N @X&X",
"&X&X'.m = < ' %.*.#.m O O X o .._.!.L.L.K.p.>.H z k 0 0 0 d.P.a.} F.P.-.0 x c Z Z { t.H.Y.R.E._.W.N o O 5 ( 5 , 0.w.w.*.) = |.&X",
"&XXX5 } >.5 $ < ) %.` ; o   .._.Q.Y.d.>.c 0 9 9 9 t r r 9 d.Y.a.} F.L.-.r p A i n w w x { 0.K.Y.!.T.5 o O > l 3.p.r.*.} 5 = /.&X",
"&XZ.< ,.p.9.X.; ; 7 7 $ o 2 !.Q.Y.y.c q t t f a S D S s r d.Y.a.} G.L.| s f c.z.P A P i w 0  .S.T.!.J.- X > } @.' V 1 ; > 1 >.@X",
"$Xt.2 $.p.p.p.3.< X O O O D.!.Y.f.k 9 a z.h h.D x.x.k.f t f.Y.a.} F.L.| f S b.V.L A B.n.i r 9 Z K.Y.).#.  = 5 3 ; % B >.,.@.m OX",
"%Xf.% 7 } %.$.&.#.[ ; . V _.L.K.c t s h.m.D j.D x.x.z.d i d.Y.a.} S.L.-.f S b.V.L s v.m.s g h 9 | K.Y.H.o o O M | 8.w.8.%.O.m OX",
"#X<.; ; ; 5 5 V ' ` < . 8.E.Y.>.e S L v.v.j.k.S x.x.z.d i S.Y.a.} S.L.| f D v.V.L s v.m.s D x.s 0 p.Y.W.m o > $.*.q.8.@.( 5 N OX",
"|., } #.] 1 O O = < $ o f.R.K.z r z.x.x.x.x.k.h v.x.z.s u d.Y.a.} F.L.| f S m.V.L s b.m.s k.x.h e :.Y.Q.$.o = m 5 < ; = o o #.@X",
"I.< 7.d.r.r.y.>.l o o $ G.T.d.q h z.M.x.j.v.x.h m.x.j.s y H.Y.a.} F.L.#.f S m.N.L a m.M.d j.v.D r Z Y.Y.a.O o O : ; ; l C m N OX",
"A.1 %.7.q.8.%.*.q.| O 1 K.P.r.y D j.M.k.h.v.x.S m.x.h.f y S.Y.a.} F.Y.#.f S x.m.D d m.m.f j.v.D d x K.Y.S.; > 3.r.p.p.p.r.@.m oX",
"y.; 5 V ( V 7 ( _ 1 o N F.Y.,.f D j.m.j.D v.x.f m.x.D f y d.Y.a.} F.Y.#.f S x.M.D f m.M.f z.v.D f x d.Y.s.1 ; ` ` @.=.q.*.( m OX",
"'.% m l l B j & % O o ) F.T.:.D S j.m.z.D v.x.f m.x.D f w S.Y.a.} F.Y.$.f S x.m.D f m.M.s j.v.D h y p.Y.s.m O ; ; , , > ; % F @X",
"].; ` q.r.p.p.r.| O   [ G.L.X.L S j.m.D j.v.x.f m.x.D f w s.Y.a.[ S.L.#.d S x.m.D f m.M.s j.v.D f y r.L.s.m = l > H >.t.t.:.1 |.",
"].; ( *.w.q.%.@.) O   ] S.Y.| L h z.m.D z.v.l.f M.x.D h y S.Y.i.} F.L.#.i S v.M.S f m.N.s z.v.D h n r.Y.s.m ; *.r.p.D.H.r.2.5 ~.",
"].% 3 6 1 1 1 1 , O   ] S.L.#.U J P ! K P R R b ! P K J z S.Y.u.} S.Y.&.c J R ! J J R ! n P R K J c r.L.a.m O V / V ) } ) ) < /.",
".X= % , ] :.:.>.3.; o [ S.T.u.w.p.d.w.p.d.r.d.p.w.d.p.w.p.F.Y.u.[ S.L.i.q.p.d.w.a.f.r.H.p.w.d.p.w.p.u.Y.a.2 O o o o O % ; ; > }.",
"'.; @.*.*.*.=.*.$.: o [ S.R.u.=.u.G.@.a.K.=.G.a.%.L.e.&.S.S.Y.u.[ S.L.a.=.u.K.%.s.G.=.K.a.@.G.u.=.S.u.L.a.2 O } 9.>.9.y.p.0.m `.",
"'.; 7 ` @.` ' ' _ ; o [ S.Y.8.#.>.,.#.>.,.#.,.>.#.,.:.#.&.S.Y.u.[ d.L.e.#.:.,.#.>.,.#.<.>.| ,.>.X.*.u.Y.u.m O } &.%.q.r.8.*.2 /.",
"XX< = ; < < < < < = o ) S.Y.@.p w i i y i i i w i i y y k s.Y.r.[ s.L.=.q y i i y y i i w i i y y z e.Y.i.m O 5 V 7 V ( ( V > (.",
".X> C H N H X.X.m O . ) S.Y.@.f t h D g D D h t D D a f c s.Y.e.[ s.L.*.q f D D s s D D s h D f a v e.L.u.5 O O % O o o o X 1 XX",
"`.; %.8.9.r.r.r.q.m o N s.T.@.c.s x.M.S m.m.j.f v.x.h k.b s.Y.7.C s.L.5.q D k.N.f h v.N.f k.v.z.S b u.Y.e.1 O >.y.9.4.4.0.9.m .X",
"(.; ' @.%.,.p.p.q.5 X V s.T.@.c.s x.N.S m.m.j.s x.x.f x.b a.Y.5.C a.L.5.q j.x.N.f h v.m.f k.v.z.S b u.Y.e.1 $ @.q.w.8.*.*.*.l }.",
"`.; 6 6 ^ ` @.} ( < o m a.Y.&.c.s x.N.S m.m.x.f x.x.f v.G s.Y.5.V a.L.8.q z.x.m.f h v.M.f x.m.z.S G u.Y.q.1 O ( @.@.` ' _ / 1  X",
"oX1 O @ O O O O o o o 5 a.Y.&.c.i x.M.h m.m.x.f v.x.f b.G a.Y.=.N a.L.8.0 z.m.v.f S m.M.f x.m.k.h G e.L.e.< O = < > > ; ; % 5 oX",
"]., 3.0.:.#.,.>.} 1 o 5 a.Y.&.c.i x.N.h m.m.x.f v.x.f m.G s.L.=.N a.Y.8.q x.M.x.s h m.M.f j.m.z.h I u.T.q.< O 1 1 m N ] } m ) @X",
"^.1 *.q.r.w.8.2.*.V O m a.Y.&.E Z E Q I W W E I E E I Q { s.L.&.m a.Y.8.B E W E G T W W I E W E T { r.R.5., O #.w.w.q.8.p.,.m OX",
"I.> @.*.8.%.` ` @.5 O 2 a.L.r.w.p.H.w.p.S.w.S.a.w.H.u.w.a.s.Y.%.m a.L.i.8.p.H.w.s.d.w.D.p.q.d.p.w.s.u.Y.q., O 7 ( ( ^ ) o.' 1 |.",
"U.; 8 ^ 7 8 8 6 8 > o 2 a.Q.u.%.u.Y.o.s.G.@.K.a.@.Y.r.+.S.S.Y.%.m a.Y.a.@.w.Y.%.s.G.+.L.a.o.K.p.%.S.u.R.5.: O O O X + + @ X 1 oX",
"/.$ j l l 1 1 l , O . 1 i.Q.q.| | >.| | X.| X.| | X.| | @.a.Y.@.m p.L.q.} | X.| | X.| X.X.| #.X.} #.q.Y.5.> O | <.0.0.0.g.,.2 ].",
"y.5 $.0.H.f.w.8.*., o < u.Y.6.A w A s y s s t r a a r a M s.Y.@.m i.L.5.0 a a a 9 t a a r t a t r c q.Y.5.> $ *.8.q.*.*.7.r.m `.",
"t.4 @.*.w.q.*.%.@.5 o < i.Y.*.R n n.n.P n.z.h f j.D s k.G a.Y.@.1 p.L.8.q j.x.j.i h j.x.s D j.D f G e.L.5.: % ` %.*.@.@.@._ 1 '.",
"~.; 6 ' } ' 6 8 3 ; o , i.W.*.R n b.b.L B.v.D S v.x.f N.Y i.L.@.1 u.L.8.w v.m.x.s h.m.m.f j.v.x.h I e.Y.*.: O < < 1 1 3 3 3 < |.",
"XX1 ; < 1 l m l 1 $ . , a.R.&.P p b.b.S m.v.D S v.x.f N.Y a.L.O.1 u.L.8.w x.x.x.i j.m.M.f j.v.x.h I e.Y.=.% O 1 m [ { F F C 1 .X",
".X1 N [ :.,.0.g.,.m o , s.Y.%.P u b.b.S m.v.D S m.x.h N.Y a.L.` j i.L.8.w x.m.k.i z.m.M.f j.v.x.f I e.Y.=.% $ ,.0.w.r.f.f.w.m ^.",
"Z.5 &.*.*.*.8.q.*.m o : s.E.%.P A v.x.S m.v.D S m.x.h N.Y a.Y.` j a.Y.8.y v.x.x.s j.v.M.f j.m.v.f G r.R.=.% % #.=.8.p.p.r.*.V 1.",
"1.< ` @.@.` _ ' / 1 = , p.E.5.! A x.x.S m.v.S S m.x.h N.Y a.L.} , u.L.8.y v.m.x.s z.b.m.f j.v.v.s G q.Y.=.% O 5 7 / ` #.@.` 3 >.",
"U.= < < 5 1 1 m m 1 - l p.R.8.;.Y ;.W ~ C.W ~ T Q ;.T C.X.a.Y.} , u.Y.q.H ;.C.;.Y E Q ;.Y E Q ;.Y X.q.Y.%.O O O $ $ ; > 1 1 ; Z.",
"Z.1 | C H | <.4.9.B o j a.L.r.q.u.S.q.a.S.q.S.a.q.S.u.q.s.a.Y.} , u.L.a.8.p.S.q.s.S.q.S.a.q.S.p.q.S.e.Y.%.O O C #.$.>.,.4.0.N <.",
"m ( *.*.q.&.@.@.8.F o & a.Y.u.=.a.K.+.S.K.=.F.s.=.P.u.=.G.s.L.} , u.Y.a.=.u.L.=.S.K.=.K.s.+.K.a.=.K.r.Y.%.@ = } q.p.p.8.*.*.) N ",
"1 8 o.@.*.*.` _ %.( = : p.E.&.] )  .H ] H H ] ] H ] ) H } i.Y.} : r.Y.5.) H ] H ) H H H ] H ] ] F } 7.Y.&.@ = V @.*.=.o.' o.V m ",
"| - 3 5 6 V V 5 5 2 ; k p.Y.%.A 9 a a t a a t r a s r a Z u.L.) : u.L.5.q a g a 9 a a a t a a a r Z q.Y.=.O O = < < < ; ; < - <.",
"-.5 { F m M  .-.H 1 $ & u.Y.&.P r h.x.f z.k.h f k.z.d v.I u.Y.[ & u.L.6.y x.x.k.t h.k.v.h D x.j.s I q.Y.%.O O , m | <.4.<.F = I.",
"1 #.p.p.r.2.r.q.8.[ O # u.Y.%.L t k.M.h x.m.h S v.l.f N.Y a.L.) & u.Y.8.y m.v.v.t z.v.M.D j.m.v.s G q.T.%.@ O ..8.w.p.r.8.9.F  .",
"< ..8.w.8.#.@.*.*.[ O # u.R.&.P i x.m.f j.m.h S v.x.f M.I i.Y.[ & u.Y.8.y v.v.v.t z.v.M.D j.v.l.s I q.T.@.@ = / %.@.*.7.@.@.V C ",
"C m F ) ) V V 5 6 < o # u.Y.%.I v K U b K U b J K K b U { i.Y.] & r.Y.8.Z U U K v J K U J K U K v { q.Y.@.@ = < 1 < < < < 1 ; F ",
"-.2 H ] C M C H H ; o # u.Y.e.q.p.f.d.H.H.H.H.H.D.d.p.r.6.s.Y.] & w.Y.r.w.u.f.d.H.H.J.H.H.H.d.p.r.8.r.Y.@.@ O 1 C ] ] | >.<.N t.",
"m ,.r.w.r.p.p.8.*.1 o # u.L.Y.Y.T.Y.R.R.Y.T.T.T.T.T.Y.L.Y.Y.T.] & r.Y.Y.L.Y.Y.Y.R.T.Y.R.R.Q.R.Y.R.Y.Y.Y.@.@ = ) r.f.r.8.8.q.[ | ",
"m V @.*.w.q.%.o.` < o # 8.d.S.d.S.d.S.d.S.d.d.d.d.S.S.S.d.S.S.C & ,.s.s.s.S.S.S.S.s.S.s.S.S.S.S.S.S.s.d.} @ = V %.*.*.*.@.` V | ",
"] = < < 5 5 < < ; O o * z M M M B B B B B B M M B B B M B M B k e l B B B B B M B M B B B B B B B M B B j @ = < 3 < 5 V 7 3 1 Z.",
".X>.N :.X.:.X.] { Z.].}.}.|.|.|.|.|.|.}.}.}.|.|.|.|.|.}.|.|.}.|.}.|.|.|.}.}.}.|.|.|.|.|.|.|.|.|.|.|.|.}.|.].t.O < M 2 < ; ; 4.+X"
};
