/* XPM */
static char *_b0877704cfe4fabaff7413884354c2cxS4KdIhSSmFdVfYM[] = {
/* columns rows colors chars-per-pixel */
"64 64 194 2 ",
"   c #151516",
".  c #181617",
"X  c #161618",
"o  c #191719",
"O  c #1B191A",
"+  c #25130D",
"@  c #241C1B",
"#  c #2C1D1A",
"$  c #261914",
"%  c #311F1B",
"&  c #3F1D10",
"*  c #32211E",
"=  c #39221C",
"-  c #2B211F",
";  c #1E1D21",
":  c #251F21",
">  c #242425",
",  c #2E2222",
"<  c #2C2B2E",
"1  c #27272A",
"2  c #342523",
"3  c #3A2724",
"4  c #3B2B26",
"5  c #322728",
"6  c #342A2A",
"7  c #3B2D2B",
"8  c #342826",
"9  c #3D302F",
"0  c #2E2D31",
"q  c #322E31",
"w  c #333133",
"e  c #3C3333",
"r  c #343438",
"t  c #3A3739",
"y  c #3B3A3D",
"u  c #4C2616",
"i  c #4A2719",
"p  c #5A2D17",
"a  c #572D19",
"s  c #5D321A",
"d  c #62341B",
"f  c #63381D",
"g  c #693B1D",
"h  c #673517",
"j  c #733E1A",
"k  c #422E2A",
"l  c #462B23",
"z  c #522E20",
"x  c #44322D",
"c  c #4B322D",
"v  c #573828",
"b  c #433533",
"n  c #493731",
"m  c #453836",
"M  c #4A3A36",
"N  c #433C3B",
"B  c #4A3D3A",
"V  c #503933",
"C  c #553E39",
"Z  c #643B22",
"A  c #6D3E21",
"S  c #461F12",
"D  c #76401B",
"F  c #7A441D",
"G  c #4D413D",
"H  c #46413F",
"J  c #52423D",
"K  c #5B443B",
"L  c #6C4229",
"P  c #73492C",
"I  c #684835",
"U  c #3E3E42",
"Y  c #423F42",
"T  c #444245",
"R  c #4C4443",
"E  c #464549",
"W  c #494749",
"Q  c #4B4A4C",
"!  c #4F4947",
"~  c #514643",
"^  c #534946",
"/  c #5B4A45",
"(  c #544C4B",
")  c #5C4D4A",
"_  c #56504F",
"`  c #5B514E",
"'  c #4E4D51",
"]  c #534F51",
"[  c #545254",
"{  c #5A5454",
"}  c #595957",
"|  c #565559",
" . c #5A565A",
".. c #5B5A5B",
"X. c #65524C",
"o. c #625653",
"O. c #625A57",
"+. c #635C5C",
"@. c #695C5A",
"#. c #6A5B56",
"$. c #725E59",
"%. c #70574B",
"&. c #5F605F",
"*. c #6C615F",
"=. c #7C604D",
"-. c #5E5D61",
";. c #605F63",
":. c #5F6165",
">. c #646363",
",. c #6B6463",
"<. c #6A6967",
"1. c #66666A",
"2. c #68676A",
"3. c #6C6B6C",
"4. c #676869",
"5. c #726664",
"6. c #766C69",
"7. c #77716F",
"8. c #6E6D72",
"9. c #706F71",
"0. c #737273",
"q. c #797675",
"w. c #7C7B7C",
"e. c #747578",
"r. c #844A1E",
"t. c #80471F",
"y. c #844B20",
"u. c #884C21",
"i. c #8A542D",
"p. c #846855",
"a. c #897D7A",
"s. c #837978",
"d. c #867369",
"f. c #8C817E",
"g. c #7E7D80",
"h. c #807F82",
"j. c #828284",
"k. c #868689",
"l. c #84888D",
"z. c #8A898C",
"x. c #8B8686",
"c. c #918683",
"v. c #968C89",
"b. c #9A8E8D",
"n. c #948987",
"m. c #9C918E",
"M. c #90908E",
"N. c #8E8E91",
"B. c #8D9194",
"V. c #939296",
"C. c #969799",
"Z. c #9C9C9E",
"A. c #999798",
"S. c #A69B99",
"D. c #A08F89",
"F. c #9E9FA1",
"G. c #A0A0A2",
"H. c #A6A6A9",
"J. c #ACA9A9",
"K. c #B4ADAA",
"L. c #B2A9A4",
"P. c #B9B1AF",
"I. c #B3B2B5",
"U. c #BBB4B2",
"Y. c #BCBCBE",
"T. c #B9B7B8",
"R. c #C2BCBA",
"E. c #C1B5B1",
"W. c #C7C1BF",
"Q. c #C0BFC1",
"!. c #C6C5C7",
"~. c #CCC6C5",
"^. c #C7C7C8",
"/. c #CCCBCC",
"(. c #D2CFCD",
"). c #D3D4D4",
"_. c #D9D5D4",
"`. c #DCDBDC",
"'. c #E1DEDD",
"]. c #E4E1DF",
"[. c #DFDFE0",
"{. c #E4E3E4",
"}. c #EDECEC",
"|. c #E9E6E5",
" X c #F5F4F4",
".X c #FBFBFB",
"XX c #F9F9F8",
"oX c #FDFDFD",
"OX c #FCFCFC",
"+X c #FEFEFE",
"@X c white",
"#X c #FFFFFE",
"$X c #FDFEFD",
"%X c #FEFEFE",
/* pixels */
".XXX+X+X.X+X+X+X+X+X+X+X+X+X+X+X.X}.|.}.XX_.U.`.~.a.a.s.o.#.o.N B o.G b $.B G 6.m.K.~.}. XXX+X+X+X+X+X+X+X+X+X+X+X+X+X+X+X+X.X+X",
"+X+X+X+X.X+X+X+X+X+X+X+X+X+X+XXXR.5.) { a.B b G B B B 7 ( ^ b O.o.9 ( { 2 ( { 7 m m b @.q.m.R.~.{..X+X+X+X+X+X.X+X+X+X+X+X+X+X.X",
".X+X+X.X+X+X+X+X+X+X+X+X+XXXT.a.G ( ,.` , O.6., ~ >.+.n >.>.J >.>.n  .>.l +.>.M ,.,.{ 2 ^ M b N ` L..X+X+X+XOX.X.X+X.XXX.X+X+X.X",
".X.X.X+X+X+X+X+XOX+X+X.X}.6., 9 7 3.q.9.% ..} 4 R 0.{ c } } n { } x } ..= } } x { } [ c 0.>.B 6.G 2 S._..X.X.X.X.X.X.X.X+X+X+X+X",
"+X.X+X+X+X+X+X+X+X.X_.f.) 5 ,.w.{ ( &...* _ ..m R 3.( k } } n } >.n >.3.= { } 7 { >.^ M ..{ / 3.{ 7 e M f._. X.X.X.X.X+X+X+X+X+X",
".X+X+X+X+X+X+X+X+X~.( b ( , *.&.[ n 2.<.3 ( q.R G } ! 7 [ [ n ..3.M } } = { { 7 { 4.M ^ 3.~ o.&.( J 7.( 7 ` v.`..X.X.X+X+X+X+X+X",
"+X+X+X+X+X+X+XXX{.5.( s.9.b M } | k { } 7 R w.^ G } ^ x T W n { } M ! [ = | ] 4 [ { x } 3.n @.} G @.} } 7 / e R ~..X.X+X+X+X+X+X",
"+X+X+X+X+X+X].a.2 3 ( } } { x [ <.n R | m e } R b Q N k | [ 4 y T 7 9 y = Q Y 3 Q W b { } k  .' n >.} ^ / <./ 7 $.P. X+X+X+X+X+X",
"+X+X+X+X+XXX6.6 6 5 B ^ { } ~ G 3.^ 4 W N 5 T e 5 e 8 * t e , 6 q , 2 8 # e 7 2 e e 7 U T x [ N n 3.&.x o.` e 7 e k L.OX+X+X+X+X",
"+X+X+X+X+X_.b 0 0 < ,.N.( } { k ( ! % 7 3 @ # @ O O O . O O X o o X . O . O O O O @ @ # * 7 Q 9 / w.Q n k.w.y t r 2 B '.+X+X+X+X",
"+X+X+X+X}.f.2 0 < q >.l.z.( } e * 5 @ o X   X X     o O o O O O O O O o O o   X       . O @ 4 4 ( [ b x.B.9.t q 0 7 8 C }.+X+X+X",
"+X+X+X].o.e k 0 0 q >.l.C.5.W e @ o o     X > U W 0 0.w.W j.V...-.C.k.Q j.q.0 | W < O     X O , 9 7 J C.B.3.q 0 < 4 5 5 f.XX+X+X",
"+X+X.XS.7 ,.G 0 < < +./ w.C.4 @ .     < 3.4.k.).Y.| }.XXw.{..XV.V..X{.w.XX}.[ /.`.z.0.k.Y X X O > 2 x.k.o.>.q < 0 * M ,.b R.+X+X",
"+X+X.Xv.7 >.) 0 < w +.u V N.~ X   o X -.k.E E z.-.1 w.k.0 9.k.y Y k.9.0 z.e.> >.z.T Q k.-.> 1 O O b F.X.i +.e 0 < b 7...N n  X+X",
"+X+X'.6.: m b < 0 q +.d u @.>.> 3.k.< q.V.[ } V.9.0 z.V.y g.V.W Q V.g.y V.k.0 q.V.[ | V.0.y V.z.0 { s.v h +.q 0 < m >.} ! , P.+X",
"+X}.*.B _ 8 * 0 0 q +.A h c 9...XXXX..).+XZ.J.+X). . X.Xw.{..XV.V.+X{.w..X}.[ `.OXJ.G..X/.>.XXXX>.0./ d j @.q 0 0 m >. .T , m.+X",
"+XL.5 O.<.<.c 0 < q +.A F i 5.9.XX}.} /.XXC.H.XX^.| }.XXw.`.XXN.N.XX`.q.XX|.[ ).XXH.Z. X^.;.}.}.>.q.i j D +.w < 0 9 N 4 # : o.}.",
".Xa.7 { 0.3.^ 0 0 q +.A t.S o.q 8.2.O [ 0.y y 0.' ; 4.8.1 ..8.w w 8...> 8.>.; [ e.T E 8. .< 2.8.w ,.& D D @.w 0 0 2 2 9 ~ ( 4 (.",
".Xv., Y | >.G 0 < q +.A y.u /  .Y.I.T Z.Y.0.w.Y.C.Y I.Y.| H.Y.2.2.Y.H.| Y.I.U Z.Y.j.g.Y.V.' Y.Y.[ o.i F j @.w < 0 9 +.3...} 3 /.",
"XXa.@ # 7 m 7 0 < q +.A y.p C q.+XXX;.).+XG.I.+X)...XX.Xg.{.+XC.C.+X{.h..X X| `.+XI.H.+X/.>..XXX2./ i y.j @.w < 0 N 0.+.Q Y 3 (.",
"_.m M B 5 @ % < < < +.g y.a V @.{.`.Q T.{.k.N.{.I.Q _.{.>.!.{.w.w.{.!.>.[.).E T.{.z.k.{.I.[ `.`.[ C u y.j O.w < < 8 6 5 * # m '.",
"K.8 | 0.q.@.n < < q  .g y.s c e >.-.O ' 2.t t 2.Q > -.4.> | >.w w 4.| 1 2...; ' 8.y y 2.| > ;.>.< V u r.j O.q < < 2 , 6 e 9 m `.",
"m.8  .4.>...B < < q  .g y.p c ,.`.).[ T.[.z.V.[.I.' ).`.2.!.`.g.g.`.^.0.[.).Q T.'.C.V.{.I.[ `.`.{ V u y.j o.q < < b +.@.<.{ 3 /.",
"c.6 t T W E 8 < 0 <  .g u.s c 7.+XXX-.).+XG.I.+X)...XX.Xh.{.+XC.C..X{.k..X X-.`.XXI.J..X^.>.+XXX,.M u y.j o.< < < 7 +.3...[ 3 (.",
"U.2 4 k x M l < < q  .g y.d M O.I.J.y V.T.2.q.I.N.U J.I.[ Z.I.>.>.I.G.| T.H.E Z.Y.0.0.I.z.U I.I.R G i y.j o.w < < 8 N e e 6 7 _.",
"/.7 ! ..O.,.M < 0 0  .A y.d R ( V.z.0 e.V.| ..C.0.w z.V.U g.V.' ' V.g.T Z.z.y g.Z.-...V.8.w N.V.N R i y.D o.q 0 < 7 { +.+.{ 7 U.",
"~.7 Y } >.>.M w < < { A r.d ( 7..X X-./..XZ.J..X/. . XXXw.[..XV.N..X'.w.XX}...).XXH.G.XX!.;..XXX>.[ z r.D o.q < w m j.M.0.&.N d.",
"~.7 w t e e 3 0 < 0  .R I v ..s.+XXX;.).+XF.I.+X)...XX.Xj.{.+XC.C.+X{.g..X X| `..XJ.H.+X/.>.+X.X,...V I R  .q < < 7 ( [ _ [ e 7.",
"(.7 2 7 m J x 0 0 q  .' | ..| 5.XX}.| /.+XV.F.+X!.[ }.XX0.`..Xz.z..X`.8.XX}.| /..XZ.Z.+X!...XXXX .[ -...'  .w 0 0 2 * 2 4 k # S.",
"W.7 E { } >.B 0 < q  .:.2.:.| {  X|.T T.+Xj.j.+XI.Q {..X../.XX0.e..X(.[ XX{.' I.OXh.k.+XI.T {.XXR [ :.1.1...w 0 0 b { +.@.+.9 m.",
"R.7 t Q } ] x 0 0 0  .3 k m [ 5..X X[ ^.+XV.F.+X^.[ }..X8.`..Xk.k.+X{.2..X|.' ^.OXZ.C.+X!.[ XX.X+.| B k = { q 0 0 e 3.q.4.} e f.",
"_.b , 5 6 q 3 0 0 0 { a h a } c.+X.XN.{.+XY.).+X|.k..X.XH. X+XT.T.+X}.H..X.Xj.|.+X/.Q.+X{.z.+X+Xx...z h p { q 0 0 8 N H R T 5 f.",
"_.b N ~ J ^ n 0 < 0 { d D s } b.+X+X}..X+X X.X+X+X|.+X+X X+X+X X X+X+X X+X+X|..X+X.XXX+X.X}.+X+XP...z j h { q 0 < 2 # # # # 2 R.",
"R.7 Q } ..&.B 0 0 0 [ g r.f  .b.+X+X+X+X+X+X+X+X+X+X+X+X+X+X+X+X+X+X+X+X+X+X+X+X+X+X+X+X+X+X+X+XU...v r.j ` q 0 0 m q.q.w.w.7 P.",
"U.7 E [ | +.G 0 0 < { g y.f  .b.+X+X+X+X+X+X+X+X+X+X+X+X+X+X+X+X+X+X+X+X+X+X+X+X+X+X+X+X+X+X+X+XU...v y.D { q 0 0 e { } } | 9 L.",
"W.7 w t y E 9 0 q < { g r.f  .b.+X+X+X+X+X+X+X+X+X+X+X+X+X+X+X+X+X+X+X+X+X+X+X+X+X+X+X+X+X+X+X+XU...v y.D { q 0 0 7 W E E Y 3 U.",
"'.B # % $ @ % < 0 0 [ g r.f | b.+X+X+X+X+X+X+X+X+X+X+X+X+X+X+X+X+X+X+X+X+X+X+X+X+X+X+X+X+X+X+X+XU.| v y.j { q 0 < 2 * % % # 2 (.",
"R.7 >.w.7.6.J 0 < < [ g y.Z | b.+X+X+X+X+X+X+X+X+X+X+X+X+X+X+X+X+X+X+X+X+X+X+X+X+X+X+X+X+X+X+X+XU.| v y.j { q < 0 4 B X.#./ m `.",
"L.7 } >.3.>.m < < < [ K I K | v.+X+X+X+X+X+X+X+X+X+X+X+X+X+X+X+X+X+X+X+X+X+X+X+X+X+X+X+X+X+X+X+XU.[ J I I { q < < b ..} 3.+.7 ~.",
"L.8 W } ..Q 7 < 0 q [ -.| [ ' n.+X+X+X+X+X+X+X+X+X+X+X+X+X+X+X+X+X+X+X+X+X+X+X+X+X+X+X+X+X+X+X+XP.Q ' | -.{ q 0 0 8 N N Q T 5 L.",
"L.8 w t w e 3 0 < q { Q U U T n.+X+X+X+X+X+X+X+X+X+X+X+X+X+X+X+X+X+X+X+X+X+X+X+X+X+X+X+X+X+X+X+XP.T y U W { w 0 0 * + + + $ - /.",
"P.8 4 b b b 4 < < q [  .+.` [ v.+X+X+X+X+X+X+X+X+X+X+X+X+X+X+X+X+X+X+X+X+X+X+X+X+X+X+X+X+X+X+X+XU.[ ]  .+.{ q < < m 0.q.w.q.b m.",
"c.7 ..3.z.x.J < 0 q { z p i [ v.+X+X+X+X+X+X+X+X+X+X+X+X+X+X+X+X+X+X+X+X+X+X+X+X+X+X+X+X+X+X+X+XU.[ l p i { q 0 0 e ..} } 4.b S.",
"v.6 W  .+.&.m 0 0 q [ s D s | v.+X+X+X+X+X+X+X+X+X+X+X+X+X+X+X+X+X+X+X+X+X+X+X+X+X+X+X+X+X+X+X+XU. .v D h ` q 0 0 7 W W Q U 5 S.",
"T.7 w Y E Y 4 0 0 < [ A y.Z ..v.+X+X+X+X+X+X+X+X+X+X+X+X+X+X+X+X+X+X+X+X+X+X+X+X+X+X+X+X+X+X+X+XU...v y.D { 6 0 < 3 4 7 7 7 , U.",
"'.B # 3 7 M k < < w [ A y.Z ..v.+X+X+X+X+X+X+X+X+X+X+X+X+X+X+X+X+X+X+X+X+X+X+X+X+X+X+X+X+X+X+X+XU...v y.D { w 0 0 e O.` ` ` 7 L.",
"~.b ^ { >.,.M < 0 < ] L y.Z  .n..X+X+X+X+X+X+X+X+X+X+X+X+X+X+X+X+X+X+X+X+X+X+X+X+X+X+X+X+X+X+X+XU. .v r.F _ q 0 < e +.w.w.<.B *.",
"n.7 } } } } m < < q ] L y.Z ..m..X+X+X+X+X+X+X+X+X+X+X+X+X+X+X+X+X+X+X+X+X+X+X+X+X+X+X+X+X+X+X+XU.} v r.F _ q 0 0 e 3.0.>.} R b ",
"c.5 N T W T 7 0 0 q { P u.Z -.m..X+X+X+X+X+X+X+X+X+X+X+X+X+X+X+X+X+X+X+X+X+X+X+X+X+X+X+X+X+X+X+XU.} v y.F { q 0 0 3 e R E T q B ",
"U.5 2 2 3 3 = < < < [ =.d.5.-.m..X.X.X+X+X+X+X+X+X+X+X+X+X+X+X+X+X+X+X+X+X+X+X+X+X+X+X+X+X+X+X+XU. .,.d.p.{ q < < 2 * 3 7 x 2 #.",
"a.9 ,.+.o.6.J 0 0 q ] -.2.e.;.m..X+X+X+X+X+X+X+X+X+X+X+X+X+X+X+X+X+X+X+X+X+X+X+X+X+X+X+X+X+X+X+XP.[ 2.1.:.[ q 0 w m q.q.w.j.{ 7 ",
") e | } ..| 9 < 0 0 [ -.| .. .b.+X+X+X+X+X+X+X+X+X+X+X+X+X+X+X+X+X+X+X+X+X+X+X+X+X+X+X+X+X+X+X+XK.Q [ [ ..{ w 0 < b 3.&.| { ! , ",
"o.6 Y E W W 7 0 < q  .:.| ( ;.m..X.X.X+X+X+X+X+X+X+X+X+X+X+X+X+X+X+X+X+X+X+X+X+X+X+X+X+X+X+X+X+XP.[ ( [ ..{ w < 0 7 E Y y Y t 2 ",
"n.# # # # # % 0 0 q +.b z z  .m.+X.X+X+X+X+X+X+X+X+X+X+X+X+X+X+X+X+X+X+X+X+X+X+X+X+X+X+X+X+X+X+XP.| c z k ] w 0 q = # # # @ # #.",
"@.b @.o.( G k < < q  .v g v  .n..X.X+X+X+X+X+X+X+X+X+X+X+X+X+X+X+X+X+X+X+X+X+X+X+X+X+X+X+X+X+X+XP.| v j d ( q 0 0 b q.w.w.,.7 #.",
"R R <.q.0.} b 0 w q  .P u.L -.n..X+X+X+X+X+X+X+X+X+X+X+X+X+X+X+X+X+X+X+X+X+X+X+X+X+X+X+X+X+X+X+XP.| v y.j ( 6 0 < e 3.3.>...! 3 ",
"N e Q [ ' T 9 y y t { P i.L } c..X+X+X+X+X+X+X+X+X+X+X+X+X+X+X+X+X+X+X+X+X+X+X+X+X+X+X+X+X+X+X+XK.| v y.j ( q < 0 6 Y E T T t - ",
"s.# 8 7 3 4 k r r y  .Z u.v  .c..X+X+X+X+X+X+X+X+X+X+X+X+X+X+X+X+X+X+X+X+X+X+X+X+X+X+X+X+X+X+X+XP.| v y.j ` q < 0 2 % % % = # 3 ",
"5.m ` ` o.` M w 0 q +.I %.w.e.n.+X+X+X+X+X+X+X+X+X+X+X+X+X+X+X+X+X+X+X+X+X+X+X+X+X+X+X+X+X+X+X+XP.2.j.$.I { 6 < 0 e @.+.<.7.R m ",
"o.R 4.<.q.3.R r 0 q  .3.V.C.l.m.+X+X+X+X+X+X+X+X+X+X+X+X+X+X+X+X+X+X+X+X+X+X+X+X+X+X+X+X+X+X+X+XU.g.C.C.q.{ < 0 0 e +.....} N 8 ",
") 7 E Q ] W b t t t @.g.B.l.j.b.+X+X+X+X+X+X+X+X+X+X+X+X+X+X+X+X+X+X+X+X+X+X+X+X+X+X+X+X+X+X+X+XU.g.l.B.z.+.q 0 < 6 U U U y t 9 ",
"S.b 7 b m 7 3 r y t >.l.j.3./ D.+X+X+X+X+X+X+X+X+X+X+X+X+X+X+X+X+X+X+X+X+X+X+X+X+X+X+X+X+X+X+X+XE.K ,.h.l.3.q 0 < 2 2 2 5 7 b m.",
" XR.S.U.T.U.#.r 0 0 +.6./ %.S.|.+X+X+X+X+X+X+X+X+X+X+X+X+X+X+X+X+X+X+X+X+X+X+X+X+X+X+X+X+X+X+X+X XK.$./ ,.,.q 0 0 B n.a.7.s.K. X",
".XXXXXXX.X.Xs.y 0 < k c m.|..X+X+X+X+X+X+X+X+X+X+X+X+X+X+X+X+X+X+X+X+X+X+X+X+X+X+X+X+X+X+X+X+X+X+X.X}.L.C k 6 0 0 ` }. X X XXXOX"
};
