/* XPM */
static char *_b3fcd804c294035c680b0d2233cc841uIkb0XNYOdoSIkMU[] = {
/* columns rows colors chars-per-pixel */
"64 64 249 2 ",
"   c None",
".  c #0B0402",
"X  c #090403",
"o  c #140A04",
"O  c #1C0D04",
"+  c #160C0B",
"@  c #1C0E0A",
"#  c #160506",
"$  c #1A1205",
"%  c #1B110B",
"&  c #19190A",
"*  c #1A0D16",
"=  c #1B1414",
"-  c #061314",
";  c #220D03",
":  c #220E0A",
">  c #231104",
",  c #23130B",
"<  c #251A0C",
"1  c #2C1A0C",
"2  c #2A1509",
"3  c #341D0C",
"4  c #321C05",
"5  c #2A051A",
"6  c #230916",
"7  c #241413",
"8  c #251B12",
"9  c #2C1C13",
"0  c #28191B",
"q  c #331C12",
"w  c #311E1C",
"e  c #33031D",
"r  c #2E2215",
"t  c #2A251A",
"y  c #342115",
"u  c #33231B",
"i  c #3B271C",
"p  c #38220F",
"a  c #191324",
"s  c #261928",
"d  c #241A38",
"f  c #310F25",
"g  c #1C2724",
"h  c #2C2528",
"j  c #382724",
"k  c #322E32",
"l  c #1E2C1F",
"z  c #471B3B",
"x  c #463838",
"c  c #512E31",
"v  c #672F35",
"b  c #684738",
"n  c #1E1846",
"m  c #1E1C55",
"M  c #231D4C",
"N  c #281A48",
"B  c #371E49",
"V  c #241C54",
"C  c #2B1C53",
"Z  c #2A1B57",
"A  c #361858",
"S  c #242244",
"D  c #2C2443",
"F  c #23224C",
"G  c #28264C",
"H  c #242253",
"J  c #2A2359",
"K  c #342955",
"L  c #352D52",
"P  c #2A1B64",
"I  c #3A1F63",
"U  c #2D2765",
"Y  c #392765",
"T  c #3B336B",
"R  c #3A2978",
"E  c #3C3473",
"W  c #3D3679",
"Q  c #4B194A",
"!  c #42185B",
"~  c #551A5A",
"^  c #45385B",
"/  c #423747",
"(  c #6F2F4D",
")  c #471864",
"_  c #6C1D77",
"`  c #711D75",
"'  c #751C7B",
"]  c #7D1D7E",
"[  c #681C6C",
"{  c #482567",
"}  c #57266B",
"|  c #492779",
" . c #582973",
".. c #42357B",
"X. c #4C3771",
"o. c #67236A",
"O. c #642373",
"+. c #692574",
"@. c #7A257C",
"#. c #7A3779",
"$. c #722F70",
"%. c #1B4B54",
"&. c #30484D",
"*. c #305068",
"=. c #0E5F74",
"-. c #514449",
";. c #6E4D4F",
":. c #565375",
">. c #774976",
",. c #6C526F",
"<. c #776676",
"1. c #61716D",
"2. c #8A4F3C",
"3. c #843777",
"4. c #863071",
"5. c #8C4959",
"6. c #9F735F",
"7. c #926B5F",
"8. c #8C5071",
"9. c #897578",
"0. c #95726C",
"q. c #A7766B",
"w. c #A37C77",
"e. c #B17777",
"r. c #9C8375",
"t. c #A4857B",
"y. c #BA8C7E",
"u. c #B4987D",
"i. c #AA8C73",
"p. c #C0877B",
"a. c #3D2A87",
"s. c #731C81",
"d. c #442A8C",
"f. c #482D8A",
"g. c #542C87",
"h. c #452A9D",
"j. c #492898",
"k. c #4D3699",
"l. c #563B99",
"z. c #493685",
"x. c #7C2684",
"c. c #783B86",
"v. c #4B2BA5",
"b. c #5434A7",
"n. c #5836B7",
"m. c #623AB2",
"M. c #246C80",
"N. c #785486",
"B. c #6E4E94",
"V. c #5C45AF",
"C. c #684AAA",
"Z. c #754DA8",
"A. c #6A54A8",
"S. c #6C4DBB",
"D. c #664BB9",
"F. c #724BB6",
"G. c #7656B8",
"H. c #7157AD",
"J. c #655294",
"K. c #613CC3",
"L. c #6C4CC4",
"P. c #6C46CA",
"I. c #6D4BCB",
"U. c #6746C4",
"Y. c #7149CB",
"T. c #7345C8",
"R. c #6C4BD2",
"E. c #724BD1",
"W. c #7255C3",
"Q. c #862A8A",
"!. c #8C3A8C",
"~. c #873688",
"^. c #94398E",
"/. c #882992",
"(. c #8B3A95",
"). c #943695",
"_. c #953994",
"`. c #9A3997",
"'. c #95359C",
"]. c #9A359C",
"[. c #943A9B",
"{. c #9A389D",
"}. c #993597",
"|. c #9C2F9A",
" X c #9936A1",
".X c #9938A2",
"XX c #9737A3",
"oX c #A038A3",
"OX c #8B4386",
"+X c #894A97",
"@X c #90508B",
"#X c #866584",
"$X c #986A82",
"%X c #937099",
"&X c #A9728E",
"*X c #8852AC",
"=X c #9873A9",
"-X c #A86EAC",
";X c #A25789",
":X c #9B79CB",
">X c #3994A5",
",X c #3A8698",
"<X c #559299",
"1X c #4DA6B3",
"2X c #648985",
"3X c #60BCDD",
"4X c #6ACAD6",
"5X c #64C2E3",
"6X c #52C9DF",
"7X c #8B8785",
"8X c #9C9691",
"9X c #A78885",
"0X c #B78B82",
"qX c #AA9B89",
"wX c #B69488",
"eX c #AA9B97",
"rX c #B59798",
"tX c #AE8698",
"yX c #A8A19B",
"uX c #B4A198",
"iX c #B5A58F",
"pX c #B284A7",
"aX c #B699B6",
"sX c #AE98A8",
"dX c #B5AAA6",
"fX c #BDB0B1",
"gX c #9F87B7",
"hX c #CAA89C",
"jX c #D09CB7",
"kX c #C9A7A4",
"lX c #CAAAB9",
"zX c #C6BAB9",
"xX c #D7BAB8",
"cX c #D5B0AF",
"vX c #E4B1BB",
"bX c #C29F9F",
"nX c #CCC2B8",
"mX c #E6C3BE",
"MX c #BBA2D6",
"NX c #D39BD0",
"BX c #D5AFC7",
"VX c #E3ABCA",
"CX c #87D6E4",
"ZX c #D6CAC8",
"AX c #DAD6D6",
"SX c #D2CCCB",
"DX c #E9E2DC",
"FX c #F2EFEB",
"GX c #E4DED4",
/* pixels */
"                                                                                                                                ",
"                                                                                                                                ",
"                                                                                                                                ",
"              CX5X3X                                                                                                            ",
"            CX<XM.5X3X                                                                                                          ",
"          4X4X1X=.%.1.                                                                                                          ",
"        1X>X=.,X<Xh t k                                 k.k.l.                                                                  ",
"        1X6X>X%.g t t l                           U.D.D.D.D.D.C.C.J.                                                            ",
"      - %.<X2Xk r t &                       C.D.U.I.D.A.gXaXaXaX%XN.B.D.                                                        ",
"      X - t r 4 > $                       V.D.L.G.A.H.MXkXu.u.iXhXBXNXH.C.J.                                                    ",
"        + w 9 O                       C.L.I.L.F.B.gXaXrXwXt.i.i.w.w.rXlXN.C.C.                        FXFX                      ",
"        # 1 1 o                   C.D.L.E.Y.F.*XxXqXqXnXt.7.uXZXrX0XmXxXlXN.B.              FXFXDX7X7X7XAXAXSXyXnXDXDXDXSX      ",
"        i u y                   L.L.L.L.F.*X-X&XhXu.r.kXcXy.r.r.r.w.w.0.9XxXtXB.MX      c b ;.qXGXzXAXAXdXSX8XzXDXAXdX1.8       ",
"        j 9 ;                 D.L.L.S.Z.=XpX( v wX0.0.xXkXwXu.u.u.wX9X7.c b cX@XB.sX-.q q 3 3 y j j x DXzXDXZX8XdX9.t o .       ",
"        i q 3                   d.m.F.B.=XtXv ;.BXzXsXBXqX9X9XfXZXZXZXZXcXv 5.VX8.9.x q q q 1 1 8 8 1 y y 9 9 u u % o           ",
"    rXu.r.6.r.                  | f.C.Z.=XpXv ;.xXZXyXZX9XdXZXZXAXfX7XeXzXv v jX9.9.x 1 2 ; , O % % 2 2 > 2 q y < # o           ",
"    wXq.6.6.6.7.7.                l.k.g.g.%XpX7.xXxXqXiXrXrXsXfXBXZXSXZXZXvXc lX#X<.x r 1 ; O , % % , ; ; 2 1 > O O o           ",
"  y.0Xq.q.q.q.q.0.              H.G.S.D.b.g.B.=XlXkXdXiXeXrXeXeXeXuXfXSXZXkX9X%XN.<.k u 1 ; O $ $ $ : ; ; > 2 , O o             ",
"  wXy.y.y.0X0X0XwX            S.L.E.E.P.D.n.j.f.| | N.aXuXiXqXqXeXeXeXeXrXrXlXN. .,.j 9 8 , $ $ $ 2 ; ; 2 > O o                 ",
"  9XwX9Xt.t.t.9X          W.L.I.I.I.I.R.U.n.n.P.m.m.g. .#X$XrXkXkXkXhXhXhX#XX.| :X    0 : # o o o O ; , @ @ o o                 ",
"    x x s j 9.ZX      G.W.P.E.P.P.I.U.L.K.n.E.E.P.F.B.NXOXo.4.8.8.5.v 2.kX| v.D.H.                X # X X X                     ",
"    a a a D :.        C.L.Y.E.Y.I.L.D.b.v.m.T.Y.I.C.N.NXOX~._.`._.3.( 5.jXZ.n.h.D.D.                                            ",
"      * a d K T z.A.A.S.L.P.P.E.Y.L.b.h.n.Y.P.Y.Y.Z.>.jX8.~.'. XXX/.$.;XNXZ.F.U.v.U.S.                                          ",
"      * * d G U z.A.C.C.L.I.E.P.U.b.j.j.v.U.R.E.I.F.>.jXOX!.'.{.'./.@.~.3.NX+XF.L.I.D.D.                                        ",
"      j 0 s N V U z.z.f.k.v.U.I.b.j.j.j.v.v.n.R.R.S.N.NXOX/.'.`.}.Q.@.!.3.8.jXZ.S.b.k.k.                                        ",
"      u = s D H V P R d.f.j.h.j.j.j.j.j.j.j.h.v.v.F.N.NXOX).}.}._.Q.Q.).!.( BX*Xb.j.d.a.R T                 <.9.0.7.q.          ",
"      w 7 s S F V Z P ..d.R a.a.d.d.k.f.f.f.d.j.v.Z.pX$XOX'.].{.}.Q.4._.3.( VXc.f.R P P U U L L K K J L K L #XtX0Xe.p.y.q.      ",
"      j 0 / ^ F M V V V Z P W W R         B. . .g.+XNX;X~.'. X}.}./.@.^.3.( VX$.H.  K C Z V V J V Z H M N B ,.9.0.w.            ",
"      w 7 h     S S S D n n T             9.&X&Xe.vX$.!.'.'.].].'./.Q.].^.4.&XaX        n V V m M n                             ",
"      j 9 0                               @XOX3.4.4.!.'.'.'.}.}./.Q.'.'.{._.~.                                                  ",
"      u < %                               +X(.'.^.`..X.X'.`._._.Q.Q..X X'.'.+X                                                  ",
"      i <                                 -X!.(._._.'..X'.}.`._.Q.Q. X'.}.^.                                                    ",
"      u 8                                 o.$.#.3.~.[.XX X{._._.Q.x.[.'.[.!.                                                    ",
"      j 7                                 # 5 5 5 z Q Q #.OXOX8.>.>.>.>.>.,.                                                    ",
"      j 7                                 5 f f 0 6 : 6 5 e e 5 x / = h ;.+ X                                                   ",
"      o $                             ~././.Q.Q.$.Q z f 5 5 5 6 k L g / -.5 6                                                   ",
"      o &                         x.(. X'.].}.`._.^.OXo.o.o.} B ^ ,.,.,.>.o.o.3.                                                ",
"      % <                       ~.).'. X.X{.}._._._._.@._ O.} A N B B } +.~.(.`._.~.                                            ",
"      : @                   #.~.].{.'.'.{.'.).[.'.).] ' O. .Y C C C ! O.+._ x.|.|.`.~.                                          ",
"      7 :                   ~.'.].].}.'.].]. X'./.' ` +. .K M F H C C ! } +.` ' /.}.).!.                                        ",
"      @ :             #.c.!.(.{.].].}.'.}.`.).@.' ` +.O.) A V H H V C A  .O.[ ' ' x.).(.~.                                      ",
"      u 7           #.(.[.'.'.'.}.].].].}.Q.` ` [ +.O.) A A Z J V V J Z A } +.` _ s.s./.'.!.#.                                  ",
"      o @       c.!.[.'. X'..X'.}.].]./.@.` +.O.O. .) A C C M H V U E E Y A ) +.+._ _ s./.'._.!.                                ",
"      $ @       +X'.'..X X'.).oX X}.x.` +.o.o.+.} ! C J J G M M J U E E E Z A A } o.[ _ @.Q.).(.~.                              ",
"      , ,       c.(.(.(.(.(.+X(.(.x.+.[ o.o.o. .{ Z V M :.*.G F V U W W T E V C A } o.o.` ' @.x.$.                              ",
"      u 9                   ) ) ! } O.+.+.} } A A V H n       F m m U W E T V Z C A } +.` ` ` [ ~                               ",
"      8 8                   I Y A A A ! { } { C Z H F             H J R ..W W Z C C !  . .O.O.~                                 ",
"      + %                 K ....E R I Z A A C C M S                 F U ..E E T T J C A A B Q                                   ",
"      = =                 X...R W W U Z V V M S G                     M J X.T X.T H M N d                                       ",
"      % 8               L T W ..U H H H F F F                         N D D D D d d S d                                         ",
"      $ <               / ^ ^ ^ D d S F G                             d d h h w % * *                                           ",
"      $ <             8 j h s 9 % * s d d                             s h 9 < > ; ; #                                           ",
"      % 0             3 q 1 q > > , * *                                 9 y ; O > > O                                           ",
"      * 0             3 3 y > > O O % @                               2 p ; > ; @ #                                             ",
"      = 0             1 3 q 9 , > > O                               > 4 4 ; : 7 @ .                                             ",
"      o %             1 y u , @ O O                                 1 p 3 ; , @ % o                                             ",
"      = %             r 9 9 O O % O                                 1 q 1 , : O %                                               ",
"      = %             , 9 > O O @                                 2 1 1 > , O , $                                               ",
"      o @           < 1 1 O O > O                                 1 9 1 > O > O @                                               ",
"      . .           , 9 o 1 1 O @                                 r r 9 $ O , @ , @ +                                           ",
"      . .       9 , , , @ O @ O #                                 8 r , $ % O , % @ % @ +                                       ",
"      X X       o . . o + X . X                                     % $ $ $ $ % @ @ @ % + # X                                   ",
"                                                                                                                                ",
"                                                                                                                                "
};
