/* XPM */
static char *_2650bd490734aa8d22e6479feed0f43C3R0BvTZsOZMRDcM[] = {
/* columns rows colors chars-per-pixel */
"64 64 6 1 ",
"  c None",
". c #161C2E",
"X c #7C4E5F",
"o c #DB4C4C",
"O c #BCADA7",
"+ c #F1E2B9",
/* pixels */
"                                                                ",
"                                                                ",
"                                                                ",
"                                                                ",
"                                                                ",
"                                                                ",
"                                                                ",
"                                                                ",
"                                                                ",
"                                                                ",
"                                                                ",
"                                                                ",
"                                                                ",
"                                                                ",
"                                                                ",
"                                                                ",
"                                                                ",
"                                                                ",
"                                                                ",
"                                                                ",
"                                .....                           ",
"                              .........                         ",
"                            ............                        ",
"                           .....ooooo...                        ",
"                          ....ooooo+++...                       ",
"                         ...oooooooOO++....                     ",
"                        ...oo+++ooooO++X....                    ",
"                       ...oo++OOoooooooXX....                   ",
"                      ...Xoo+OOooooooooXXX...                   ",
"                     ....XXooooooooooooXXXX...                  ",
"                     ...XXXXooooooooooXooXXX...                 ",
"                     ..XXoooXXooo+++XXooooXX...                 ",
"                     ..XXoooooXXOO++ooooOOXX...                 ",
"                     ..XXXOOooXXOOOXoooOOOXX...                 ",
"                     ...XXOOOXXXXXXXXXXOOOX...                  ",
"                      ...XXOOXXXXXXXXXXXXX....                  ",
"                      .....XXXXXXXXXXXXXX....                   ",
"                        ....................                    ",
"                          ................                      ",
"                            ...OOOOOOO..                        ",
"                            ..OOOO+++O..                        ",
"                            ..OOO+++++..                        ",
"                             ..OO++++..                         ",
"                              ...+++                            ",
"                                                                ",
"                                                                ",
"                                                                ",
"                                                                ",
"                                                                ",
"                                                                ",
"                                                                ",
"                                                                ",
"                                                                ",
"                                                                ",
"                                                                ",
"                                                                ",
"                                                                ",
"                                                                ",
"                                                                ",
"                                                                ",
"                                                                ",
"                                                                ",
"                                                                ",
"                                                                "
};
