/* XPM */
static char *d4e74f3e900d4408bfb08e3b76b809d48DVkyFkZ8iLjmDqr[] = {
/* columns rows colors chars-per-pixel */
"64 64 202 2 ",
"   c #EA080C",
".  c #E7090C",
"X  c #E7100D",
"o  c #E9120D",
"O  c #E91C0D",
"+  c #EA0812",
"@  c #EA081B",
"#  c #E91C16",
"$  c #E92A0F",
"%  c #E7280E",
"&  c #E7350F",
"*  c #EA2412",
"=  c #EA2D12",
"-  c #E93813",
";  c #EA0924",
":  c #EA082E",
">  c #EA0835",
",  c #EB083B",
"<  c #E72738",
"1  c #E94412",
"2  c #E84613",
"3  c #E95113",
"4  c #EA5D16",
"5  c #EC6815",
"6  c #EC7716",
"7  c #E75323",
"8  c #EA0846",
"9  c #E9084C",
"0  c #EA0855",
"q  c #EB0859",
"w  c #EA086A",
"e  c #EA0863",
"r  c #EA0874",
"t  c #D91868",
"y  c #CE6352",
"u  c #1CFE14",
"i  c #1CFE1B",
"p  c #16FE18",
"a  c #24FE13",
"s  c #2BFE13",
"d  c #31FE12",
"f  c #3AFE13",
"g  c #1CFE23",
"h  c #1CFE2C",
"j  c #15FE24",
"k  c #1CFE32",
"l  c #1CFE3D",
"z  c #17FE39",
"x  c #2BFE2D",
"c  c #45FE12",
"v  c #4CFE13",
"b  c #53FE13",
"n  c #5CFE11",
"m  c #68FE12",
"M  c #74FE13",
"N  c #7CFF13",
"B  c #63FE0F",
"V  c #67A977",
"C  c #1CFE43",
"Z  c #1CFE4A",
"A  c #16FE44",
"S  c #1AFE55",
"D  c #2EFD48",
"F  c #1CFE68",
"G  c #19FE66",
"H  c #1CFE76",
"J  c #20FD6B",
"K  c #ED8816",
"L  c #EE9914",
"P  c #F18E1A",
"I  c #EEA916",
"U  c #F2AA19",
"Y  c #F2B716",
"T  c #C89F29",
"R  c #84FF12",
"E  c #88FB17",
"W  c #95FF13",
"Q  c #9EFE14",
"!  c #A5FF12",
"~  c #ABFF11",
"^  c #BAFF12",
"/  c #B8FC12",
"(  c #C6DD18",
")  c #F3C616",
"_  c #F6DE19",
"`  c #F5D815",
"'  c #E1C414",
"]  c #C4FF12",
"[  c #CDFF13",
"{  c #D1FF11",
"}  c #DDFF11",
"|  c #DEF111",
" . c #C7FF0F",
".. c #F6E216",
"X. c #F9ED15",
"o. c #F8E916",
"O. c #E3FF13",
"+. c #EBFF12",
"@. c #FAF314",
"#. c #F4FF12",
"$. c #FBFF12",
"%. c #A0847C",
"&. c #84A969",
"*. c #0A0AEE",
"=. c #0F1FEF",
"-. c #0D08F3",
";. c #1408F3",
":. c #1B08F2",
">. c #0E15F2",
",. c #0F1AF1",
"<. c #2308F2",
"1. c #2B08F3",
"2. c #3208F2",
"3. c #3B08F3",
"4. c #2912EF",
"5. c #0F21F1",
"6. c #112DF0",
"7. c #0E39F1",
"8. c #1133F1",
"9. c #113CF1",
"0. c #1332EE",
"q. c #4A08F3",
"w. c #4208F3",
"e. c #5109F2",
"r. c #5C08F2",
"t. c #6109F2",
"y. c #6A0AF3",
"u. c #7609F3",
"i. c #6D10F0",
"p. c #134AEE",
"a. c #145CEF",
"s. c #0E42F1",
"d. c #1244F1",
"f. c #1456F1",
"g. c #1660EF",
"h. c #156BED",
"j. c #156AF1",
"k. c #157AF2",
"l. c #187AF1",
"z. c #5945ED",
"x. c #9910B4",
"c. c #EB088D",
"v. c #EC0882",
"b. c #EA089F",
"n. c #E90895",
"m. c #EB08B3",
"M. c #EB08BA",
"N. c #EC08A7",
"B. c #CA09B5",
"V. c #8A09F3",
"C. c #9C09F4",
"Z. c #9309F4",
"A. c #AA08F4",
"S. c #BB08F4",
"D. c #B309F4",
"F. c #9429C8",
"G. c #EC08CB",
"H. c #E808C1",
"J. c #EC08D4",
"K. c #EC08DA",
"L. c #C409F4",
"P. c #CD09F5",
"I. c #D409F5",
"U. c #DC08F5",
"Y. c #EC08E3",
"T. c #EC08EA",
"R. c #E708E0",
"E. c #E408F5",
"W. c #EC08F5",
"Q. c #769497",
"!. c #1BFE82",
"~. c #1CFE8C",
"^. c #16FE86",
"/. c #1CFF9A",
"(. c #1CFEAA",
"). c #1BFEB5",
"_. c #1CFFBB",
"`. c #31DC9A",
"'. c #198BF2",
"]. c #1785F2",
"[. c #1999F3",
"{. c #1AA5F3",
"}. c #1AB4F5",
"|. c #1BBCF5",
" X c #1DA3EA",
".X c #218BEE",
"XX c #4685CE",
"oX c #1CFDC6",
"OX c #1CFFDC",
"+X c #1DFFD5",
"@X c #1DC2F5",
"#X c #1CCEF6",
"$X c #1CD7F7",
"%X c #1CC8EE",
"&X c #1CFFE2",
"*X c #1CFEEC",
"=X c #1CE5F9",
"-X c #1DEAF9",
";X c #1CFFF4",
":X c #1DF4FB",
">X c #1CFFFC",
",X c #20EEF8",
/* pixels */
">X>X>X>X>X>X>X>X>X>X>X>X>X>X>X>X>X>X;XZ u u u u u u u u u u u u u u u R $.$.$.$.$.$.$.$.$.$.$.$.$.$.$.$.@.4                     ",
">X>X>X>X>X>X>X>X>X>X>X>X>X>X>X>X>X>X>X~.u u u u u u u u u u u u u u u ! $.$.$.$.$.$.$.$.$.$.$.$.$.$.$.@.K O                     ",
":X>X>X>X>X>X>X>X>X>X>X>X>X>X>X>X>X>X>XoXi u u u u u u u u u u u u u u / $.$.$.$.$.$.$.$.$.$.$.$.$.$.$.U O                       ",
"'.:X>X>X>X>X>X>X>X>X>X>X>X>X>X>X>X>X>X*XS u u u u u u u u u u u u u s [ $.$.$.$.$.$.$.$.$.$.$.$.$.$.o.2                         ",
",.].-X>X>X>X>X>X>X>X>X>X>X>X>X>X>X>X>X>X(.i u u u u u u u u u u u u f } $.$.$.$.$.$.$.$.$.$.$.$.$.X.6 o                         ",
"-.>.k.=X>X>X>X>X>X>X>X>X>X>X>X>X>X>X>X>X*XC u u u u u u u u u u u u c +.$.$.$.$.$.$.$.$.$.$.$.$.$.L o                           ",
"-.-.-.h.:X>X>X>X>X>X>X>X>X>X>X>X>X>X>X>X>X!.u u u u u u u u u u u u b #.$.$.$.$.$.$.$.$.$.$.$.$.` &                             ",
"-.-.-.-.g.$X>X>X>X>X>X>X>X>X>X>X>X>X>X>X>X_.g u u u u u u u u u u u N $.$.$.$.$.$.$.$.$.$.$.$.X.4                               ",
"-.-.-.-.-.a.$X>X>X>X>X>X>X>X>X>X>X>X>X>X>X&XZ u u u u u u u u u u u ~ $.$.$.$.$.$.$.$.$.$.$.@.P o                               ",
"-.-.-.-.-.-.p.$X>X>X>X>X>X>X>X>X>X>X>X>X>X>X~.i u u u u u u u u u u { $.$.$.$.$.$.$.$.$.$.$.Y *                                 ",
"-.-.-.-.-.-.-.9.#X>X>X>X>X>X>X>X>X>X>X>X>X>X+Xh u u u u u u u u u s O.$.$.$.$.$.$.$.$.$.$.X.2                                   ",
"-.-.-.-.-.-.-.-.d.@X>X>X>X>X>X>X>X>X>X>X>X>X>XG u u u u u u u u u c #.$.$.$.$.$.$.$.$.$.@.6 o                                   ",
"-.-.-.-.-.-.-.-.-.9.}.>X>X>X>X>X>X>X>X>X>X>X>X(.g u u u u u u u u n #.$.$.$.$.$.$.$.$.$.U O                                   ; ",
"-.-.-.-.-.-.-.-.-.-.=.@X>X>X>X>X>X>X>X>X>X>X>XOXl u u u u u u u u M $.$.$.$.$.$.$.$.$...=                                 + 9 G.",
"-.-.-.-.-.-.-.-.-.-.-.=.{.:X>X>X>X>X>X>X>X>X>X;XH u u u u u u u u W $.$.$.$.$.$.$.$.X.5 .                             + 8 n.T.W.",
"-.-.-.-.-.-.-.-.-.-.-.-.6.[.:X>X>X>X>X>X>X>X>X>X_.g u u u u u u a ~ $.$.$.$.$.$.$.@.P o                             > c.J.W.W.W.",
"-.-.-.-.-.-.-.-.-.-.-.-.-.>.'.:X>X>X>X>X>X>X>X>X;XZ u u u u u u s ] $.$.$.$.$.$.$.) =                           @ w J.W.W.W.W.W.",
"-.-.-.-.-.-.-.-.-.-.-.-.-.-.,.'.:X>X>X>X>X>X>X>X>X/.i u u u u u s { $.$.$.$.$.$...3                         @ 0 m.W.W.W.W.W.W.W.",
"-.-.-.-.-.-.-.-.-.-.-.-.-.-.-.,.k.=X>X>X>X>X>X>X>X+Xk u u u u u f } $.$.$.$.$.@.6 .                     + 8 b.Y.W.W.W.W.W.W.W.W.",
"-.-.-.-.-.-.-.-.-.-.-.-.-.-.-.-.>.h.-X>X>X>X>X>X>X;XF u u u u u b +.$.$.$.$.$.Y *                     > c.K.W.W.W.W.W.W.W.W.W.W.",
"t.<.;.-.-.-.-.-.-.-.-.-.-.-.-.-.-.-.g.=X>X>X>X>X>X>X(.u u u u u m #.$.$.$.$...1                   @ e K.W.W.W.W.W.W.W.W.W.W.W.W.",
"W.P.V.r.2.;.-.-.-.-.-.-.-.-.-.-.-.-.-.g.$X>X>X>X>X>XOXk u u u u R $.$.$.$.X.5                 @ q m.W.W.W.W.W.W.W.W.W.W.W.W.W.W.",
"W.W.W.U.L.Z.e.;.-.-.-.-.-.-.-.-.-.-.-.-.d.#X>X>X>X>X>XH u u u u ~ $.$.$.$.L O               8 N.K.W.W.W.W.W.W.W.W.W.W.W.W.W.W.W.",
"W.W.W.W.W.W.W.P.t.1.-.-.-.-.-.-.-.-.-.-.-.d.$X>X>X>X>X+Xg u u u [ $.$.$._ =             @ r T.W.W.W.W.W.W.W.W.W.W.W.W.W.W.W.W.W.",
"W.W.W.W.W.W.W.W.W.P.C.r.2.;.-.-.-.-.-.-.-.-.9.|.>X>X>X;XS u u a O.$.$...2           ; w H.W.W.W.W.W.W.W.W.W.W.W.W.W.W.W.W.W.W.W.",
"W.W.W.W.W.W.W.W.W.W.W.E.L.V.e.<.;.-.-.-.-.-.-.8.|.>X>X>X/.i u f #.$.@.K .       @ 0 m.T.W.W.W.W.W.W.W.W.W.W.W.W.W.W.W.W.W.W.W.W.",
"W.W.W.W.W.W.W.W.W.W.W.W.W.W.U.L.V.3.-.-.-.-.-.-.6.}.>X>XoXh u n #.$.) *       , b.Y.W.W.W.W.W.W.W.W.W.W.W.W.W.W.W.W.W.W.W.W.W.W.",
"W.W.W.W.W.W.W.W.W.W.W.W.W.W.W.W.W.U.S.t.1.;.-.-.-.5.{.>X;XS u R $._ -   + ; v.Y.W.W.W.W.W.W.W.W.W.W.W.W.W.W.E.E.E.U.I.L.D.C.u.q.",
"W.W.W.W.W.W.W.W.W.W.W.W.W.W.W.W.W.W.W.W.P.V.r.2.;.-.5.{.:X).i Q @.6   ; w M.W.W.W.W.W.W.W.W.W.W.E.U.P.S.A.C.V.u.t.e.3.:.-.-.-.-.",
"W.W.W.W.W.W.W.W.W.W.W.W.W.W.W.W.W.W.W.W.W.E.U.L.Z.e.;.,.'.*XZ / U # 0 M.T.W.W.W.W.W.W.E.P.D.V.t.e.q.3.1.<.:.;.-.-.-.-.-.-.-.-.-.",
"W.W.W.W.W.W.W.W.W.W.W.W.W.W.W.W.W.W.W.W.W.W.W.W.W.W.L.e.4..X~.( < b.W.E.U.I.L.A.Z.u.3.*.-.-.-.-.-.-.-.-.-.-.-.-.-.-.-.-.-.-.-.-.",
"W.W.W.W.W.W.T.Y.Y.Y.Y.Y.Y.Y.Y.Y.K.J.J.J.J.G.G.G.G.G.M.m.B.x.Q.%.F.u.t.q.w.2.<.-.-.-.-.-.-.-.-.-.-.-.-.-.-.-.-.-.-.-.-.-.-.-.-.-.",
"q q q q q q 0 9 9 9 9 9 8 8 8 8 , , , , , > : : : : ; # 7 T V &.`. Xl.p.5.>.-.-.-.-.-.-.-.-.-.-.-.-.-.-.-.-.-.-.-.-.-.-.-.-.-.-.",
"                                                . & K ` / D XXy E J OX:X=X|.'.g.0.*.-.-.-.-.-.-.-.-.-.-.-.-.-.-.-.-.-.-.-.-.-.-.",
"                                          o $ 4 Y o.#.~ x oXz.t ' m z /.*X>X>X:X-X#X{.a.7.6.>.-.-.-.-.-.-.-.-.-.-.-.-.-.-.-.-.-.",
"                                      $ 3 K ) @.$.O.R u !.%Xt.n.4 | B i G ).;X>X>X>X>X>X-X#X{.].g.d.6.>.-.-.-.-.-.-.-.-.-.-.-.-.",
"                                . $ K ) o.$.$.$.} b u Z &Xh.y.H.* ) } n u h F &X>X>X>X>X>X>X>X>X:X=X#X}.'.p.*.-.-.-.-.-.-.-.-.-.",
"                          o % 2 I @.$.$.$.$.#.] f p j oX=X7.y.R.; 6 $.{ f u u k (.*X>X>X>X>X>X>X>X>X>X>X>X>X,X@Xh.s.8.,.>.-.-.-.",
"                      # 3 K ) @.$.$.$.$.$.+.Q f u i ~.>X}.>.u.T.9 $ ` $. .c u u g F _.>X>X>X>X>X>X>X>X>X>X>X>X>X>X:X$X}.[.k.f.9.",
"                X % 6 ) o.@.$.$.$.$.$.$.#.R s u u A &X>Xk.-.u.W.r   6 $.$.^ d u u i k H OX>X>X>X>X>X>X>X>X>X>X>X>X>X>X>X>X:X-X$X",
"            X 3 L o.$.$.$.$.$.$.$.$.$.O.b u u u h oX>X:Xd.-.V.W.n.  $ ` $.$.~ a u u u u l (.;X>X>X>X>X>X>X>X>X>X>X>X>X>X>X>X>X>X",
"    . O - 6 ) X.$.$.$.$.$.$.$.$.$.#.] v p u u i ~.>X>X#X>.-.C.W.m.@ . P $.$.#.W s u u u u g F oX;X>X>X>X>X>X>X>X>X>X>X>X>X>X>X>X",
"X & 5 I _ $.$.$.$.$.$.$.$.$.$.$.#.! f u u u u S OX>X>Xk.-.;.A.W.G.;   1 X.$.$.+.R u u u u u i l ~.+X>X>X>X>X>X>X>X>X>X>X>X>X>X>X",
"I ` @.$.$.$.$.$.$.$.$.$.$.$.$.#.N a u u u u h oX>X>X=X8.-.;.S.W.K.>   o I $.$.$.#.N u u u u u u i C (.>X>X>X>X>X>X>X>X>X>X>X>X>X",
"$.$.$.$.$.$.$.$.$.$.$.$.$.$.} m u u u u u i ^.>X>X>X}.-.-.:.P.W.T.0     - o.$.$.$.+.m u u u u u u u i H +X;X>X>X>X>X>X>X>X>X>X>X",
"$.$.$.$.$.$.$.$.$.$.$.$.$.^ b u u u u u u S &X>X>X:Xk.-.-.:.I.W.W.r     X I $.$.$.$.} n u u u u u u u i l ~.&X>X>X>X>X>X>X>X>X>X",
"$.$.$.$.$.$.$.$.$.$.$.$.! d u u u u u u i _.>X>X>X-Xs.-.-.:.U.W.W.c.      4 @.$.$.$.$.} v u u u u u u u u g Z ).;X>X>X>X>X>X>X>X",
"$.$.$.$.$.$.$.$.$.$.+.W s u u u u u u i ~.;X>X>X>X@X,.-.-.1.E.W.W.m.+     O ) $.$.$.$.$.] f u u u u u u u u u g H +X>X>X>X>X>X>X",
"$.$.$.$.$.$.$.$.$.} M u u u u u u u u S *X>X>X>X>Xl.-.-.-.q.E.W.W.J.@       5 @.$.$.$.$.$.] f u u u u u u u u u u l /.&X>X>X>X>X",
"$.$.$.$.$.$.$.$.] v a u u u u u u u h ).>X>X>X>X=X8.-.-.-.t.E.W.W.T.>       O ) $.$.$.$.$.$.! s u u u u u u u u u u g S ).;X>X>X",
"$.$.$.$.$.$.$.^ s u u u u u u u u u !.;X>X>X>X>X}.-.-.-.-.u.W.W.W.W.w         5 @.$.$.$.$.$.#.W u u u u u u u u u u u u j G &X>X",
"$.$.$.$.$.+.W a u u u u u u u u u S *X>X>X>X>X:Xk.-.-.-.-.u.W.W.W.W.n.        = ` $.$.$.$.$.$.#.R a u u u u u u u u u u u u l (.",
"$.$.$.$.} m a u u u u u u u u u h _.>X>X>X>X>X=X9.-.-.-.-.Z.W.W.W.W.m.+       o K $.$.$.$.$.$.$.+.M u u u u u u u u u u u u u g ",
"$.$.$.[ c u u u u u u u u u u u !.;X>X>X>X>X>X|.,.-.-.-.-.C.W.W.W.W.J.:         = ..$.$.$.$.$.$.$.+.B u u u u u u u u u u u u u ",
"$.#.^ f u u u u u u u u u u u S &X>X>X>X>X>X>Xl.-.-.-.-.;.A.W.W.W.W.Y.,           K $.$.$.$.$.$.$.$.O.n u u u u u u u u u u u u ",
"+.W d u u u u u u u u u u u h _.>X>X>X>X>X>X:X9.-.-.-.-.:.S.W.W.W.W.T.0           & ` $.$.$.$.$.$.$.$.[ c u u u u u u u u u u u ",
"M a u u u u u u u u u u u i !.;X>X>X>X>X>X>X}.>.-.-.-.-.<.S.W.W.W.W.W.r           o L $.$.$.$.$.$.$.$.$.{ c u u u u u u u u u u ",
"u u u u u u u u u u u u u l &X>X>X>X>X>X>X:Xh.-.-.-.-.-.1.P.W.W.W.W.W.c.            1 $.$.$.$.$.$.$.$.$.$.^ s u u u u u u u u u ",
"u u u u u u u u u u u u k _.>X>X>X>X>X>X>X=X6.-.-.-.-.-.2.I.W.W.W.W.W.m.+           O Y $.$.$.$.$.$.$.$.$.#.! d u u u u u u u u ",
"u u u u u u u u u u u u !.;X>X>X>X>X>X>X>X}.>.-.-.-.-.-.2.I.W.W.W.W.W.G.@             2 o.$.$.$.$.$.$.$.$.$.#.Q s u u u u u u u ",
"u u u u u u u u u u u C &X>X>X>X>X>X>X>X>Xk.-.-.-.-.-.-.3.U.W.W.W.W.W.Y.;             . Y $.$.$.$.$.$.$.$.$.$.#.E u u u u u u u ",
"u u u u u u u u u u h oX>X>X>X>X>X>X>X>X:X9.-.-.-.-.-.-.3.E.W.W.W.W.W.W.0               5 @.$.$.$.$.$.$.$.$.$.$.#.N a u u u u u ",
"u u u u u u u u u i !.>X>X>X>X>X>X>X>X>X|.,.-.-.-.-.-.-.q.E.W.W.W.W.W.W.c.              % ) $.$.$.$.$.$.$.$.$.$.$.+.M u u u u u ",
"u u u u u u u u u Z OX>X>X>X>X>X>X>X>X:Xl.-.-.-.-.-.-.-.t.E.W.W.W.W.W.W.m.                5 @.$.$.$.$.$.$.$.$.$.$.$.O.n u u u u "
};
