/* XPM */
static char *_5f1832c826e4043bc56e464f2b9513dIupn9yjvTHeJ7amu[] = {
/* columns rows colors chars-per-pixel */
"64 64 175 2 ",
"   c None",
".  c #161C2E",
"X  c #1E2032",
"o  c #242433",
"O  c #2B2333",
"+  c #2A2933",
"@  c #252438",
"#  c #2D263B",
"$  c #2F2B38",
"%  c #322E36",
"&  c #352B39",
"*  c #3C2B39",
"=  c #302534",
"-  c #37343D",
";  c #3B3339",
":  c #41363D",
">  c #4B323F",
",  c #433C3B",
"<  c #493B3F",
"1  c #52313C",
"2  c #47423E",
"3  c #4A413F",
"4  c #52423D",
"5  c #352C42",
"6  c #3A2D44",
"7  c #433443",
"8  c #45324A",
"9  c #49344D",
"0  c #4A3943",
"q  c #553643",
"w  c #5E3744",
"e  c #543E42",
"r  c #4C3750",
"t  c #4C3851",
"y  c #513751",
"u  c #543C56",
"i  c #5B3D59",
"p  c #663942",
"a  c #613B4D",
"s  c #723E49",
"d  c #613F5C",
"f  c #464044",
"g  c #4E4041",
"h  c #4F4649",
"j  c #554244",
"k  c #564940",
"l  c #5B4B43",
"z  c #584B4B",
"x  c #5F5547",
"c  c #5F5450",
"v  c #654F42",
"b  c #6A4448",
"n  c #674F49",
"m  c #6D4D4D",
"M  c #684445",
"N  c #7A4046",
"B  c #7C4549",
"V  c #764A4F",
"C  c #655042",
"Z  c #6C5347",
"A  c #6E504E",
"S  c #6E5C4A",
"D  c #63534E",
"F  c #735846",
"G  c #795C46",
"H  c #70554D",
"J  c #795B4D",
"K  c #63415D",
"L  c #694052",
"P  c #7E4450",
"I  c #79465C",
"U  c #734458",
"Y  c #6B525A",
"T  c #705551",
"R  c #7B5C50",
"E  c #795A5A",
"W  c #78694F",
"Q  c #73624B",
"!  c #756158",
"~  c #78665B",
"^  c #6B4462",
"/  c #714665",
"(  c #754867",
")  c #7D4965",
"_  c #7D5161",
"`  c #86454D",
"'  c #8E474B",
"]  c #904D4E",
"[  c #884A5A",
"{  c #934C55",
"}  c #964F5E",
"|  c #815452",
" . c #825D54",
".. c #9D505C",
"X. c #955E58",
"o. c #A24E50",
"O. c #AE5357",
"+. c #A65259",
"@. c #A85E5A",
"#. c #B65555",
"$. c #B85B58",
"%. c #B15F5D",
"&. c #82624B",
"*. c #89664F",
"=. c #82694D",
"-. c #8C694C",
";. c #916F4E",
":. c #866353",
">. c #876F51",
",. c #89685D",
"<. c #916A52",
"1. c #97635B",
"2. c #99695E",
"3. c #867153",
"4. c #8C7554",
"5. c #967652",
"6. c #9D7354",
"7. c #907B57",
"8. c #9B7C55",
"9. c #BB645D",
"0. c #A27753",
"q. c #AB7D55",
"w. c #854B62",
"e. c #8D4D60",
"r. c #895769",
"t. c #836466",
"y. c #9D666B",
"u. c #8E7363",
"i. c #907967",
"p. c #977367",
"a. c #AB6A60",
"s. c #A76D6B",
"d. c #AB6363",
"f. c #B36560",
"g. c #BE6C62",
"h. c #B56A64",
"j. c #AE7465",
"k. c #A17B68",
"l. c #BF7264",
"z. c #B9766A",
"x. c #B57869",
"c. c #AC7872",
"v. c #C17768",
"b. c #C37D6B",
"n. c #9F8259",
"m. c #A4885C",
"M. c #A98F5F",
"N. c #AA8257",
"B. c #B48355",
"V. c #B58F5E",
"C. c #BB8C5A",
"Z. c #A5826C",
"A. c #BD9B64",
"S. c #A98C72",
"D. c #B4897C",
"F. c #BD9377",
"G. c #BF957C",
"H. c #C2965F",
"J. c #C5836E",
"K. c #C79C63",
"L. c #CA8F75",
"P. c #C18774",
"I. c #CD9478",
"U. c #C19E7D",
"Y. c #CF9A7B",
"T. c #D19A7C",
"R. c #CCA266",
"E. c #C1A268",
"W. c #D2AA6A",
"Q. c #D2A07F",
"!. c #DAB570",
"~. c #C19780",
"^. c #D5A582",
"/. c #D7AB85",
"(. c #DAB189",
/* pixels */
"                                                                                                                                ",
"                                                                                                                                ",
"                                                                                                                                ",
"                                                                                                                                ",
"                                                                                                                                ",
"                                                                                                                                ",
"                                                                                                                                ",
"                                                                                                                                ",
"                                                                                                                                ",
"                                                                                                                                ",
"                                                                                                                                ",
"                                                                                                                                ",
"                                                                                                                                ",
"                                    . . . - h c ! 0 .                     . f ~ j h - . . .                                     ",
"                            . c ~ i.k.Q./.(.Q.Q.Q.G..                     . U./.L.Q.^.^.^.Z.i.~ c .                             ",
"                            . V D.(.^.^.,.p.G.~.i.! . . . % e e e > = . . . ! i.~.~.P.L./.(.^.c.V .                             ",
"                            . #.O.7 ~ Y ( ( ( ( ( ( . @.v.g.v.b.J.b.9.J.j.. ( ( ( / ( ( Y ~ 7 O.#..                             ",
"            . f             . #.#.p ^ ( ( ^ ^ ( ( ( 5 _ r.( ^ 8 8 K ( r._ 5 ( ( / i ( ( ( ^ p #.#..             f .             ",
"          . c (.S.~ z . : m X.N N 1 ( / ^ / K ^ ^ K ^ / ^ ^ ^ ^ ( ^ K ^ ^ K K ^ ^ K ( ( ( ( 1 N N X.m : . j ~ S.(.c .           ",
"        . T Q.(.^.Q.Y.k.m v.l.+.a 9 ^ / ^ ^ i ( ( ( ( i r i i i i i i r i ( ( ( ( i / ^ ( ^ r a +.v.v.m k.Y.Q.^.(.Q.T .         ",
"        . (./.Q.Y.Z.~ @ :  .K ( ( ( u ^ K y 5 7 < v v -.G C C C G -.-.-.-.v v < 7 5 y ^ ^ u ( ( ( K  .: @ ~ u.Y.Q./.(..         ",
"      . c (.(.~.~.i.. u X t K ( ( ( 9 # . ; v -.5.-.5.n.5.-.;.C.H.n.=.;.;.8.n.5.-.G C + # 9 ( ( ( K t X u . i.~.~.(.(.c .       ",
"      . . p ` e.#.#.O u t u u d 6 $ Z -.N.R.W.W.K.K.R.W.W.!.!.!.!.W.W.W.W.W.R.K.R.R.K.;.-.-.j 6 d u u t u O #.#.e.` p . .       ",
"        . O.+.) O.#.p u u u 5 o v F C -.M.R.K.R.!.E.M.M.M.W.K.R.W.M.M.M.M.M.E.!.!.W.W.A.5.-.*.l o 5 u u u p #.O.) +.O..         ",
"        . { #.#.{ a 1 u 8 5 o l &.q.q.R.W.W.W.!.!.!.!.!.!.!.!.!.!.!.!.!.!.!.!.!.!.W.W.W.R.q.q.Z l o 5 8 u q L { #.#.{ .         ",
"        . * p ] g.| : h i.F./.i.S v v -.-.8.M.M.W.A.7.n.K.K.R.A.M.M.M.M.M.M.W.K.W.M.n.-.-.v : D i.U.! i.h : | g.] p O .         ",
"        . O j.J.A . x.^.(.Q.^.(.(.S.O G H.!.!.!.!.!.E.M.M.M.E.!.!.E.M.M.M.E.!.!.W.W.R.B.C O S.(.Q.I.I.(.^.x.. A J.j.O .         ",
"        . . q s.A A b.l.@.e i.Z.t...O.; G m.!.W.A.7.. S.S.S.S.,.E S.S.S.S.. 7.M.W.!.m.-.; O...E Z.i.| @.l.b.A A s.q . .         ",
"          . N +.> V b.g.b.J.2.m s ....; B.C.K.W.!.2 ! Q.I.T.Q.Q.(.(.^.Y.Q.! 2 !.!.W.H.B.; ....s m 2.J.b.g.b.V > +.N .           ",
"          . w +.) g.l.g.v.v.J.J.o.o.q 2.m n <.G v . ~ T.F.z S.S.S.S. .F.T.~ . v 0.<.M b 2.q o.o.J.J.v.v.g.l.g.) +.w .           ",
"          . * +.+.f.J.J.J.b.l.a.* e j.J.l.v.J.J.A : J.v.v.@.2.2.2.2.@.v.v.J.: m v.v.l.9.J.j.e * @.l.b.J.J.J.%.O.+.* .           ",
"            . [ e.} z.b.9.g.b.J.] 1.v.g.9.v.b.J.A a.b.J.b.g.J.J.J.J.J.J.J.J.a.m v.v.J.g.g.v.1.] J.J.J.b.J.z.} e.[ .             ",
"              O o.#.+.h.g.b.v.l.$.9.v.J.J.J.J.j.m v.g.g.g.g.l.b.J.v.g.v.v.g.l.m j.b.J.J.J.v.9.$.l.v.J.g.h.+.#.o.O               ",
"                . 1 o.) g.v.l.J.J.J.b.l.l.v.g.b.J.J.J.9.J.J.J.J.J.J.b.v.v.J.J.J.l.g.v.g.g.b.J.J.J.v.v.g.) o.1 .                 ",
"                    . & B v.b.l.$.v.J.J.J.J.g.9.g.v.g.l.v.b.J.b.$.v.v.v.l.g.b.J.g.l.J.J.J.J.l.9.l.J.v.B # .                     ",
"                        . O b j.#.l.l.v.v.g.9.9.g.l.v.J.J.J.J.g.g.J.J.J.J.v.l.g.9.9.g.l.l.v.l.#.j.b O .                         ",
"                          . . # 0 m 2.l.l.J.J.J.J.J.9.l.g.v.l.g.g.l.v.g.l.9.l.J.J.J.J.l.l.2.m 0 # . .                           ",
"                          . 8 ( ( d y 6 & j m 2.2.2.' j.J.J.J.J.J.J.J.J.j.X.2.2.2.m j & 6 y d ( ( 8 .                           ",
"                          . 8 ^ ^ i ( ( ( ( u i 8 8 6 # # # # # # # # # # 6 8 8 i u ( ( ( ( i ^ ^ 8 .                           ",
"                          . 8 ( ^ K ^ ( ( / K ( ( ( ( ( K K ( ( ( ( K i ^ / ( / ( K / ( ( ^ K ^ ( 8 .                           ",
"                          . 6 ^ ( / i { ..[ [ w.U K K ^ K i K ^ ^ ^ i ( ( ( ( K w.[ [ ..{ i / ( ^ 6 .                           ",
"                          . 8 K K K I ..O.#.#.#.#.#.} +.+.+.^ ..+.+.+.+.+.} #.w.+.#.#.O...I K K K 8 .                           ",
"                        o . 8 K / ( +.#.+...+.w.} ..} { ' ` i ' ' ' ' ' { ..} } w.+.O.#.#.+.( / K 8 . o                         ",
"                      . n o 6 i K ^ +.e.O.O.} ^ p e x 4.M.W.!.!.!.!.W.M.4.x e p ^ } +.} w.+.^ K i 6 o n .                       ",
"                    . g  .j o ( / ^ e.w.#.#.1 2 3.3.2 C &.F l v v l F &.C 2 3.3.2 1 #.#.+.} ^ / ( o j  .g .                     ",
"                    . . Z 0.C # ^ ^ O.w.+.s , x 4 &.B.B.6.B.B.B.B.B.B.6.B.B.&.4 x , s +.e.#.^ ^ # C 0.Z . .                     ",
"                    . $ % 0.0.l - y } +.#.p . v B.0.F 4 + . # # # # . + 4 F 0.B.v . p #.+.} y - l 0.0.% $ .                     ",
"                    . ; v . 3 R.!.W ; p o.p + B.0.+ # i y 8 ( w.w.( 6 y i # + 0.B.+ p o.p ; W !.R.3 . v ; .                     ",
"                    . ; &.: *.k l R.!.E.l . C 0.C o w.w.+.p $.9.#.$.P +.w.w.o C 0.C . l E.!.R.l k *.: &.; .                     ",
"                    . ; 6.H 6.C 0.*.k S >.l C 6.C w #.} l.} g.b.g.g.@.+.} #.w C 6.C l >.S , J 0.C 6.H 6.; .                     ",
"                    . ; :.R 6.-.B.6.C !.K.W C B.C p #.O.J...g.g.b.g.y.h.O.#.p C B.C W K.!.; 6.B.-.6.R :.; .                     ",
"                    . ; :.n 6.V.B.6.&.!.R.W C B.C p #.#.a.| g.J.J.g.f.J.#.#.p C B.C W R.!.&.6.B.V.6.n :.; .                     ",
"                      X J g 6.-.B.B.6.V.!.W C B.C p O.#.N d.g.b.l.g.#.g.#.O.p C B.C W !.V.6.B.B.-.6.g J X                       ",
"                        . o l , B.q.*.W W.W C 6.C p } #.#.P 9.9.#.g.} #.#.} p C 6.C W W.W q.q.B.j :.. .                         ",
"                            . . C 6.-.Q M.=.; <.&.p } O.o.p #.+.#.#.p o.O.} p &.<.4 5.V.x -.; 4 o .                             ",
"                                . 4 v + . . . + ; . * q * * U L ' ' * * q * . ; + . . . . .                                     ",
"                                                                                                                                ",
"                                                                                                                                ",
"                                                                                                                                ",
"                                                                                                                                ",
"                                                                                                                                ",
"                                                                                                                                ",
"                                                                                                                                ",
"                                                                                                                                "
};
