/* XPM */
static char *_201111eb98940e9f50b08b96725aa65I4YpC5PU9LHqwTm7[] = {
/* columns rows colors chars-per-pixel */
"64 64 174 2 ",
"   c None",
".  c #161C2E",
"X  c #1D2133",
"o  c #1B2438",
"O  c #1C2B3C",
"+  c #252532",
"@  c #2B2A34",
"#  c #22283E",
"$  c #24283B",
"%  c #322E36",
"&  c #3B3339",
"*  c #40373C",
"=  c #433C3B",
"-  c #47423E",
";  c #4A413F",
":  c #52423D",
">  c #1D2F40",
",  c #212C42",
"<  c #2F2D47",
"1  c #26334A",
"2  c #2E354F",
"3  c #21384A",
"4  c #253845",
"5  c #323741",
"6  c #353947",
"7  c #2C3C55",
"8  c #333C58",
"9  c #3B3A58",
"0  c #433E42",
"q  c #423A5A",
"w  c #483F61",
"e  c #274252",
"r  c #274758",
"t  c #2B4A5C",
"y  c #2C4755",
"u  c #344E50",
"i  c #32435F",
"p  c #3A4B53",
"a  c #2D515E",
"s  c #3A5457",
"d  c #3A5A5C",
"f  c #2D4E62",
"g  c #3A4C6A",
"h  c #394563",
"j  c #2D5567",
"k  c #335169",
"l  c #3C5569",
"z  c #3D5373",
"x  c #335D70",
"c  c #385B74",
"v  c #32606D",
"b  c #3D6162",
"n  c #346474",
"m  c #386A74",
"M  c #376978",
"N  c #386B7E",
"B  c #3A6677",
"V  c #3E7074",
"C  c #4E4041",
"Z  c #524343",
"A  c #564940",
"S  c #5B4C43",
"D  c #594741",
"F  c #5F5547",
"G  c #505F5A",
"H  c #654F41",
"J  c #654E49",
"K  c #655042",
"L  c #6C5347",
"P  c #6D5849",
"I  c #735846",
"U  c #795C46",
"Y  c #795B4D",
"T  c #70554D",
"R  c #7B5C50",
"E  c #5C675B",
"W  c #78694F",
"Q  c #73624B",
"!  c #474264",
"~  c #474668",
"^  c #464B6D",
"/  c #445375",
"(  c #435779",
")  c #435B7D",
"_  c #415E64",
"`  c #436662",
"'  c #45656E",
"]  c #4C7A74",
"[  c #457474",
"{  c #527F73",
"}  c #767765",
"|  c #805F51",
" . c #82624B",
".. c #89664F",
"X. c #8C694C",
"o. c #82694D",
"O. c #916F4E",
"+. c #866353",
"@. c #876F51",
"#. c #916B53",
"$. c #867153",
"%. c #8C7554",
"&. c #967652",
"*. c #9D7354",
"=. c #907B57",
"-. c #9B7C55",
";. c #A27752",
":. c #AB7D55",
">. c #9F8259",
",. c #A98F5F",
"<. c #A6865A",
"1. c #B48355",
"2. c #B58F5E",
"3. c #BB8C5A",
"4. c #8A8369",
"5. c #BD9B64",
"6. c #C2965F",
"7. c #C79C63",
"8. c #CCA266",
"9. c #C1A268",
"0. c #D2AA6A",
"q. c #DAB570",
"w. c #3E6A82",
"e. c #397383",
"r. c #3E7388",
"t. c #3E7882",
"y. c #446382",
"u. c #436985",
"i. c #436E8A",
"p. c #407E86",
"a. c #44758E",
"s. c #487388",
"d. c #437B92",
"f. c #547E80",
"g. c #3E8091",
"h. c #4E8885",
"j. c #5B948A",
"k. c #448196",
"l. c #44879B",
"z. c #448E9F",
"x. c #4C8D99",
"c. c #468C94",
"v. c #47909B",
"b. c #499298",
"n. c #619885",
"m. c #5DA197",
"M. c #63A697",
"N. c #66AA9B",
"B. c #71B096",
"V. c #4793A2",
"C. c #4B9AA5",
"Z. c #4C9EA9",
"A. c #4A91A2",
"S. c #5196A4",
"D. c #4FA0A6",
"F. c #4FA4AD",
"G. c #51A5A9",
"H. c #5FA0A3",
"J. c #53ACB2",
"K. c #57B3B7",
"L. c #5AB9BB",
"P. c #75BEA7",
"I. c #6DB3A9",
"U. c #7CC1AA",
"Y. c #6EC8BA",
"T. c #67C3BB",
"R. c #74CDBA",
"E. c #7CCDB2",
"W. c #7BD2BA",
"Q. c #80C9A7",
"!. c #82D8B9",
"~. c #88DDB9",
"^. c #85D7B6",
"/. c #8FE2B9",
/* pixels */
"                                                                                                                                ",
"                                                                                                                                ",
"                                                                                                                                ",
"                                                                                                                                ",
"                                                                                                                                ",
"                                                                                                                                ",
"                                                                                                                                ",
"                                                                                                                                ",
"                                                                                                                                ",
"                                                                                                                                ",
"                                                                                                                                ",
"                                                                                                                                ",
"                                                                                                                                ",
"                                    . . . 4 s ` ] y .                     . u { j s 4 . . .                                     ",
"                            . ` { n.m.W.~./.W.W.W.U..                     . Q.~.T.W.!.!.!.M.n.{ ` .                             ",
"                            . B I./.!.!.h.j.P.U.n.] . . . 4 a a a r > . . . ] n.U.U.I.T.~./.!.H.B .                             ",
"                            . z.l.7 { ' ) ) ) ) ) ) . v.J.F.J.K.L.K.Z.L.G.. ) ) ) ( ) ) ' { 7 l.z..                             ",
"            . u             . z.z.j z ) ) / / ) ) ) 1 u.s.) z 7 7 g ) s.u.1 ) ) ( ~ ) ) ) z j z.z..             u .             ",
"          . ` /.B.{ d . e m c.n n r ) ( / ( ^ / / ^ / ( / / / / ) / ^ / / ^ ^ / / ^ ) ) ) ) r n n c.m e . d { B./.` .           ",
"        . V W./.!.W.R.m.n J.J.k.k 8 / ( / / ~ ) ) ) ) g 9 h g g g g g 9 g ) ) ) ) ! ( / ) / i k k.J.J.n m.R.W.!./.W.V .         ",
"        . /.~.W.R.M.{ $ e p.l ) ) ) w / g i 1 6 0 H H X.U K K K U X.X.X.X.H H 0 6 1 i z / w ) ) ) l p.e $ { j.R.W.~./..         ",
"      . ` /./.U.U.n.. w X q ^ ) ) ) 8 , . & H X.&.X.&.>.&.X.O.3.6.>.o.O.O.-.>.&.X.U K @ , 8 ) ) ) ^ q X w . n.U.U././.` .       ",
"      . . j N i.z.z.O w q w w g 1 $ L X.<.8.0.0.7.7.8.0.0.q.q.q.q.0.0.0.0.0.8.7.8.8.7.O.X.X.Z 1 g w w q w O z.z.i.N j . .       ",
"        . l.k.y.l.z.j w w w < + J I K X.,.8.7.8.q.9.,.,.,.0.7.8.0.,.,.,.,.,.9.q.q.0.0.5.&.X...S + < w w w j z.l.y.k.l..         ",
"        . r.z.z.r.k r w 9 < + S  .:.:.8.0.0.0.q.q.q.q.q.q.q.q.q.q.q.q.q.q.q.q.q.q.0.0.0.8.:.:.L S + < 9 w t k r.z.z.r..         ",
"        . 3 j t.F.e.e s n.P.~.n.E H H X.X.-.,.,.0.5.=.>.7.7.8.5.,.,.,.,.,.,.0.7.0.,.>.X.X.H * G n.Q.] n.s e t.F.t.j O .         ",
"        . O D.L.m . N.^./.W.!././.B.O U 6.q.q.q.q.q.9.,.,.,.9.q.q.9.,.,.,.9.q.q.0.0.8.1.K O B./.W.Y.Y./.^.N.. m L.D.O .         ",
"        . . t S.m m K.J.x.a n.N.f.d.l.& U <.q.0.5.=.. B.B.B.B.h.[ B.B.B.B.. =.,.0.q.<.X.& l.d.s.M.n.t.x.J.K.m m S.t . .         ",
"          . n k.e M K.F.K.L.b.m x d.d.& 1.3.7.0.q.- ] W.Y.R.W.W././.!.R.W.] - q.q.0.6.1.& d.d.x m b.L.K.F.K.M e k.n .           ",
"          . f k.y.F.J.F.J.J.L.L.g.g.t b.m _ } U H . { E.P.b B.B.B.B.p.P.E.{ . H 4.} l v b.t g.g.L.L.J.J.F.J.F.y.k.f .           ",
"          . 3 k.k.C.L.L.L.K.J.C.3 a G.L.J.J.L.L.m e L.J.J.v.b.b.b.b.v.J.J.L.e n J.J.J.Z.L.G.a 3 v.J.K.L.L.L.A.l.k.3 .           ",
"            . w.i.a.J.K.Z.F.K.L.t.c.J.F.C.J.K.L.m C.K.L.K.F.L.L.L.L.L.L.L.L.C.n J.J.L.F.F.J.c.t.L.L.L.K.L.J.a.i.w..             ",
"              O g.z.k.Z.F.K.J.J.V.Z.J.L.L.L.L.G.m J.F.F.F.F.J.K.L.J.F.J.J.F.J.m D.K.L.L.L.J.Z.V.J.J.L.F.Z.k.z.g.O               ",
"                . r g.y.F.J.J.L.L.L.K.J.J.J.F.K.L.L.L.C.L.L.L.L.L.L.K.J.J.L.L.L.J.F.J.F.F.K.L.L.L.J.J.F.y.g.r .                 ",
"                    . 1 M J.K.J.V.J.L.L.L.L.F.Z.F.J.F.J.J.K.L.K.V.J.J.J.J.F.K.L.F.J.L.L.L.L.J.C.J.L.J.M , .                     ",
"                        . O v G.z.J.J.J.J.F.Z.Z.F.J.J.L.L.L.L.F.F.L.L.L.L.J.J.F.Z.Z.F.J.J.J.J.z.G.v O .                         ",
"                          . . , r m b.J.J.L.L.L.L.L.Z.J.F.J.J.F.F.J.J.F.J.C.J.L.L.L.L.J.J.b.m t , . .                           ",
"                          . 7 ) ) g i 1 3 j m b.b.b.e.G.L.L.L.L.L.L.L.L.G.c.b.b.b.m j 3 1 i g ) ) 7 .                           ",
"                          . 7 / / ! ) ) ) ) h g 7 7 1 , # # , , , , # # , 1 7 7 g h ) ) ) ) ! / / 7 .                           ",
"                          . 7 ) / ^ / ) ) ( ^ ) ) ) ) ) ^ ^ ) ) ) ) ^ ~ / ( ) ( ) ^ ( ) ) / ^ / ) 7 .                           ",
"                          . 2 / ) ( ! a.d.i.u.u./ ^ ^ / ^ ~ ^ / / / ! ) ) ) ) ^ u.u.i.d.a.! ( ) / 2 .                           ",
"                          . 7 ^ ^ ^ ) d.l.z.z.z.z.z.a.k.k.k./ d.k.k.k.k.k.a.z.u.k.z.z.l.d.) ^ ^ ^ 7 .                           ",
"                        + . 7 ^ ( ) k.z.k.d.k.u.a.d.a.r.e.N g e.e.e.e.e.r.d.a.a.u.k.l.z.z.k.) ( ^ 7 . +                         ",
"                      . J + 2 ~ ^ / k.i.l.l.a.z j p F %.,.0.q.q.q.q.0.,.%.F p j z a.k.a.u.k./ ^ ~ 2 + J .                       ",
"                    . C | Z o ) ( / i.u.z.z.r - $.$.- K  .I D H H D I  .K - $.$.- r z.z.k.a./ ( ) o Z | C .                     ",
"                    . . L ;.K # / / l.u.k.x = F :  .1.1.*.1.1.1.1.1.1.*.1.1. .: F = x k.i.z./ / # K ;.L . .                     ",
"                    . @ % ;.;.D 5 i a.k.z.j . H 1.;.I : @ . , , , , . @ : I ;.1.H . j z.k.a.i 5 D ;.;.% @ .                     ",
"                    . & J . ; 8.q.W 5 j g.j @ 1.;.@ , g i 7 ) u.u.) 1 i g , @ ;.1.@ j g.j 5 W q.8.; . J & .                     ",
"                    . &  .* ..A S 8.q.9.S . K ;.K o u.u.k.j V.C.z.V.B k.u.u.o K ;.K . S 9.q.8.S A ..*  .& .                     ",
"                    . & *.T *.K ;...A P @.S K *.K f z.a.J.a.F.K.F.F.l.k.a.z.f K *.K S @.P = Y ;.K *.T *.& .                     ",
"                    . & +.R *.X.1.*.K q.7.W K 1.K j z.l.L.d.F.F.K.F.x.G.l.z.j K 1.K W 7.q.& *.1.X.*.R +.& .                     ",
"                    . & +.J *.2.1.*. .q.8.W K 1.K j z.z.C.e.F.L.L.F.C.L.z.z.j K 1.K W 8.q. .*.1.2.*.J +.& .                     ",
"                      X Y C *.X.1.1.*.2.q.W K 1.K j l.z.n A.F.K.J.F.z.F.z.l.j K 1.K W q.2.*.1.1.X.*.C Y X                       ",
"                        . + S = 1.:...W 0.W K *.K j a.z.z.B Z.C.z.F.a.z.z.a.j K *.K W 0.W :.:.1.Z +.. .                         ",
"                            . . K *.X.Q <.o.& #. .j a.l.g.j z.k.z.z.j g.l.a.j  .#.: &.2.F X.& : + .                             ",
"                                . : H @ . . . @ & . 1 t 3 3 c c e.e.3 3 t 1 . & @ . . . . .                                     ",
"                                                                                                                                ",
"                                                                                                                                ",
"                                                                                                                                ",
"                                                                                                                                ",
"                                                                                                                                ",
"                                                                                                                                ",
"                                                                                                                                ",
"                                                                                                                                "
};
