/* XPM */
static char *cce508467e99455ea64f3b64db5c6226BKjOVae848DppYn9[] = {
/* columns rows colors chars-per-pixel */
"59 92 29 1 ",
"  c #1E1006",
". c #361E0D",
"X c #3D2310",
"o c #482811",
"O c #712334",
"+ c #251E53",
"@ c #3B3377",
"# c #3F367A",
"$ c #6F1F73",
"% c gray37",
"& c #9A695B",
"* c #817573",
"= c #A57162",
"- c #5B906A",
"; c #E8BC61",
": c #FFCC62",
"> c #472899",
", c #6E49CD",
"< c #99369E",
"1 c #33DAFF",
"2 c #808080",
"3 c #878383",
"4 c #BB8F82",
"5 c #A79D9B",
"6 c #C7C4C4",
"7 c gray80",
"8 c #D4CECD",
"9 c #C1FFFA",
"0 c #E9E9E9",
/* pixels */
"77777777222222227777777722222222777777772222222277777777222",
"77777777222222227777777722222222777777772222222277777777222",
"77777777222222227777777722222222777777772222222277777777222",
"77777779922222227777777722222222777777772222222277777777222",
"22222299177777772222222277777777222222227777777722222222777",
"22222991117777772222222277777777222222227777777722222222777",
"2222991X117777772222222277777777222222227777777722222222777",
"2222911XX1X777772222222277777777222222227777777722222222777",
"222X1111XXXX77772222222277777777222222227777777722222222777",
"222X1XX1XXXX7777222222227,,,,777222222227777777722222222777",
"222X11XXXXX 77772222222,,,,,,,,7222222227777777722222222777",
"222X111XXX 77777222222,,,,,,,,,,,22222227777777022222222777",
"777XX1XXX 2222227777,,,,,,;;;;,,,,7777772222222077777777222",
"777 XXX  2222222777,,,,,,;5555::,,,777772222223607777777222",
"777 XX  2222222277,,,,,,;5858555:,,777772222223607773307222",
"7777 X 7222222227,,,,,,;55&&&&&&:,,,77772222233007730077222",
"7777 X 722222222,,,,,,;558&&88&87;,,77772206033307730007222",
"7777XX772222222,,,,,,;84485&&-&&-7;,,777063600066030060.222",
"7777XX77222222,,,,,,;O54&5844444&O7;,77.....0360363606. 222",
"7777X 77222222,,,,,;OO5&&8444444&OO;,,7........060636.  222",
"2222X 22777777>>,,,;OO885844&88888O2;,2..............  2777",
"2222XX227777777>,,,;OO5558&&888888OO;,2..     ......  22777",
"224444427777777>>,,;OO8858*8888**8OO;,2..         ..  22777",
"224&&&&&77777777>>>,;O8855555888888O;,2..         .   22777",
"2444444&777777772,>>,;5555555558888O;,2..        .    22777",
"244&&&&&7777777,,,,>>,;;;5555555885;,,2..            222777",
"2444444477777,,,,,,,>>>>,;555555555;,>2..           2222777",
"244&&&&27777,,,,,,,,>,>>>,;;555555;>>22..           2222777",
"74444447222,,,,,,,,>,,,,>>$$;;;;;;>>>777.          77777222",
"77@X @7722,,,,,,,,,>,,,,,;$$<<<$$;>>,,7722222     777777222",
"77+  @7722,,,,,,,,>>,,,,,;$<<<<$$;,>>,,72222222277777777222",
"77+  @@722,,,,,,,>>,,,,,,;$<<<<$$;,,>,,,2222222277777777222",
"777  +@@2,,,,,,,,>>,,,,,,;$<<<<$<;,,,>,,2222222277777777222",
"777  ++@2,,,,,,,>>>,,,,,,;$<<<<$<$;,,,,,2222222277777777222",
"777X ++@@,>,,,,>>>>>,,,,,;<<<<<$<$;,,,,,,222222277777777222",
"777X +++@@>>>,,>>>>>>,,,,;$<<<<$<<$;,,>>>2222222777777774=2",
"222X ++++@@>>>>>>>>>>>>,,;$<<<<$<<$;,>>>@@77777722222=424=7",
"222  +++++@@>>>>>>>>>>>,,;<<<<<$<<$;,>>+@@@7777@@@44==4=477",
"222X +++++@@+>>>>2>>>>>,;$<<<<<$<<$;>>++++@@@@@@++=4444=777",
"222X 2+++++++>>>2222>>>,;<<<<<<$<<$;>22+++++++++++====22777",
"222X 22++++++>>72222;;>;$<<<<<<$<<$;;222+++++++++2222222777",
"222X 222++++77772222$$;;$<<<<<<$<<<$22227+++++7722222222777",
"222X 222777777772222<<$$<<<<<<$<<<<<22227777777722222222777",
"222X 222777777772222<<<<<<<<<<$<<<<<22227777777722222222777",
"777X 777222222227777<<<<<<<<<<$<<<<777772222222277777777222",
"777X 777222222227777<<<<<<<<<<$<<<<777772222222277777777222",
"777X 777222222227777<<<<<<<<<<$<<<<777772222222277777777222",
"777X 77722222222777    <<<<<<<$<<<<777772222222277777777222",
"777X 77722222222777       <<<<%%%%<777772222222277777777222",
"777X 77722222222777           %  %  77772222222277777777222",
"777  7772222222277<$$$$       % %%  77772222222277777777222",
"777 X777222222227<<<<<<$$     %  %  77772222222277777777222",
"222 X22277777777<<<<<<<<<$$$$+%%%%$$<2227777777722222222777",
"222 X2227777777<<<<<<<<<<$$$$+++$$<<<<227777777722222222777",
"222  222777777<<<<<<<<<<<$$$++++$$$<<<<27777777722222222777",
"222  22277777<<<<<<<<<<<$$$$++++$$$$<<<<7777777722222222777",
"222  22277777<<<<<<<<<<$$$$++++++$$$$<<<7777777722222222777",
"222  2227777<<<<<<<<<<$$$$$++++++$$$$$<<<777777722222222777",
"222  22277<<<<<<<<<<<$$$$$+++++++$$$$$$<<<77777722222222777",
"222X 2227<<<<<<<<<<<$$$$$+++++++++$$$$$$<<<7777722222222777",
"777  777<<<<<<<<<<<$$$$$$++++++##++$$$$$$<<<222277777777222",
"777  77<<<<<<<<<<<$$$$$$+++++++###++$$$$$<<<222277777777222",
"777  77<<<<<<<<<<$$$$$$++++++++###+++$$$$$<<<22277777777222",
"777X 77<<<<<<<<<$$$$$$$+++2++++####+++$$$$$<<22277777777222",
"777X 777222<<<<<$$$$$$++++22+++####+++$$$$$$$22277777777222",
"777XX77722222+++$$$$$+++++222+++###++++$$$$$$22277777777222",
"777XX77722222+++++$$$++++22222++####+++$$$$$$22277777777222",
"777 X77722222##++++$+++++222222++###++++$$$$$22277777777222",
"222  2227777#####+++++++7777777++#####++++$7777722222222777",
"222  2227777#####++++++277777777++####++++77777722222222777",
"222  222777#####++++++2277777777++###++++777777722222222777",
"222 X222777####++++++222777777772++.. ++7777777722222222777",
"222 X222777####++++22222777777772+...   7777777722222222777",
"222 X222777....  ++22222777777772+..    7777777722222222777",
"222 X22277....   ++22222777777772..     7777777722222222777",
"222 X22277....    222222777777772..    27777777722222222777",
"777 X77722...     77777722222222..     72222222277777777222",
"777 X77722...     77777722222222..     72222222277777777222",
"777 X77722....    7777772222222...     72222222277777777222",
"777  77722...    77777772222222...     72222222277777777222",
"777  77722...    77777772222222...     72222222277777777222",
"777X 77722..    777777772222222...    772222222277777777222",
"777  77722..    777777772222222..     772222222277777777222",
"777  77722..    77777777222222...     772222222277777777222",
"222  2227..     22222222777777...     227777777722222222777",
"222  2227..     22222222777777...      27777777722222222777",
"222  222..      22222222777777...        777777722222222777",
"222  22o       722222222777777 .           7777722222222777",
"222  22        7222222227777777            7777722222222777",
"22222222777777772222222277777777222222227777777722222222777",
"22222222777777772222222277777777222222227777777722222222777",
"22222222777777772222222277777777222222227777777722222222777"
};
